<svg width="24" height="24" fill="none" xmlns="http://www.w3.org/2000/svg"><path fill-rule="evenodd" clip-rule="evenodd" d="M12 8a.993.993 0 00-.64.232l-6 5a1 1 0 101.28 1.536l5.371-4.476 5.362 4.315a1 1 0 001.254-1.558l-6-4.828A1 1 0 0012 8z" fill="#4447E2"/><mask id="a" maskUnits="userSpaceOnUse" x="5" y="8" width="14" height="7"><path fill-rule="evenodd" clip-rule="evenodd" d="M12 8a.993.993 0 00-.64.232l-6 5a1 1 0 101.28 1.536l5.371-4.476 5.362 4.315a1 1 0 001.254-1.558l-6-4.828A1 1 0 0012 8z" fill="#fff"/></mask><g mask="url(#a)"><path fill="#4447E2" d="M0 24h24V0H0z"/></g></svg>