<svg width="28" height="28" fill="none" xmlns="http://www.w3.org/2000/svg"><path fill-rule="evenodd" clip-rule="evenodd" d="M4.606 7h18.787A1.11 1.11 0 0124.5 8.107v.12a1.11 1.11 0 01-1.107 1.106H4.606A1.11 1.11 0 013.5 8.226v-.119A1.11 1.11 0 014.606 7zm18.787 5.833H4.606A1.11 1.11 0 003.5 13.94v.12a1.11 1.11 0 001.106 1.107h18.787A1.11 1.11 0 0024.5 14.06v-.12a1.11 1.11 0 00-1.107-1.107zm0 5.834H4.606A1.11 1.11 0 003.5 19.774v.119A1.11 1.11 0 004.606 21h18.787a1.11 1.11 0 001.107-1.107v-.12a1.11 1.11 0 00-1.107-1.106z" fill="#fff"/><mask id="a" maskUnits="userSpaceOnUse" x="3" y="7" width="22" height="14"><path fill-rule="evenodd" clip-rule="evenodd" d="M4.606 7h18.787A1.11 1.11 0 0124.5 8.107v.12a1.11 1.11 0 01-1.107 1.106H4.606A1.11 1.11 0 013.5 8.226v-.119A1.11 1.11 0 014.606 7zm18.787 5.833H4.606A1.11 1.11 0 003.5 13.94v.12a1.11 1.11 0 001.106 1.107h18.787A1.11 1.11 0 0024.5 14.06v-.12a1.11 1.11 0 00-1.107-1.107zm0 5.834H4.606A1.11 1.11 0 003.5 19.774v.119A1.11 1.11 0 004.606 21h18.787a1.11 1.11 0 001.107-1.107v-.12a1.11 1.11 0 00-1.107-1.106z" fill="#fff"/></mask><g mask="url(#a)"><path fill="#fff" d="M0 0h28v28H0z"/></g></svg>