<svg fill="#2D2D3A" xmlns="http://www.w3.org/2000/svg">
  <path
    d="M66.9449 62.3084C66.9449 64.9917 65.0811 67.1667 62.7846 67.1667H12.8616L44.3381 38.7625C45.3615 37.7417 47.217 37.7459 48.2196 38.7584L66.9449 57.4167V62.3084ZM21.1821 17.1667C24.6268 17.1667 27.4225 19.9667 27.4225 23.4167C27.4225 26.8667 24.6268 29.6667 21.1821 29.6667C17.7374 29.6667 14.9417 26.8667 14.9417 23.4167C14.9417 19.9667 17.7374 17.1667 21.1821 17.1667ZM62.7847 0.5H12.8616C5.9805 0.5 0.380798 6.10833 0.380798 13V63C0.380798 69.8917 5.9805 75.5 12.8616 75.5H62.7847C69.6657 75.5 75.2654 69.8917 75.2654 63V13C75.2654 6.10833 69.6657 0.5 62.7847 0.5Z"
  />
</svg>
