<svg aria-hidden="true" style="position: absolute; width: 0; height: 0; overflow: hidden;" version="1.1" xmlns="http://www.w3.org/2000/svg" xmlns:xlink="http://www.w3.org/1999/xlink">
<defs>
<symbol id="icon-accept" viewBox="0 0 32 32">
<path fill="#50d86a" style="fill: var(--color1, #50d86a)" d="M32 16c0 8.837-7.163 16-16 16s-16-7.163-16-16c0-8.837 7.163-16 16-16s16 7.163 16 16z"></path>
<path fill="#fff" style="fill: var(--color2, #fff)" d="M14.006 21.6c-0.258 0-0.504-0.106-0.68-0.294l-4.539-4.834c-0.354-0.375-0.334-0.966 0.041-1.319s0.967-0.334 1.319 0.041l3.85 4.098 7.847-8.588c0.349-0.382 0.939-0.407 1.32-0.060s0.406 0.938 0.059 1.318l-8.528 9.333c-0.175 0.192-0.423 0.302-0.682 0.304h-0.007z"></path>
<path fill="#fff" style="fill: var(--color2, #fff)" d="M4.8 4.8h22.4v22.4h-22.4v-22.4z"></path>
</symbol>
<symbol id="icon-arrow" viewBox="0 0 32 32">
<path fill="#5F5F6E" style="fill: var(--color3, #5F5F6E)" d="M16 21.333c-0.304 0-0.607-0.103-0.853-0.309l-8-6.667c-0.565-0.471-0.643-1.312-0.171-1.877 0.471-0.565 1.311-0.641 1.877-0.171l7.161 5.968 7.149-5.753c0.573-0.461 1.413-0.371 1.875 0.203s0.371 1.412-0.203 1.875l-8 6.437c-0.244 0.196-0.54 0.295-0.836 0.295z"></path>
</symbol>
<symbol id="icon-arrow-close" viewBox="0 0 32 32">
<path fill="#4447e2" style="fill: var(--color1, #4447e2)" d="M16 10.667c-0.001 0-0.002 0-0.003 0-0.325 0-0.622 0.117-0.853 0.311l0.002-0.002-8 6.667c-0.309 0.246-0.505 0.623-0.505 1.044 0 0.736 0.597 1.333 1.333 1.333 0.337 0 0.645-0.125 0.879-0.331l-0.002 0.001 7.161-5.968 7.149 5.753c0.226 0.181 0.515 0.29 0.83 0.29 0.736 0 1.333-0.597 1.333-1.333 0-0.416-0.191-0.788-0.489-1.032l-0.002-0.002-8-6.437c-0.227-0.184-0.518-0.295-0.836-0.295v0z"></path>
<symbol id="icon-behance" viewBox="0 0 32 32">
<path fill="#fff" style="fill: var(--color2, #fff)" d="M9.936 6.425c0.88 0 1.692 0.068 2.436 0.271 0.744 0.135 1.353 0.406 1.895 0.744s0.947 0.812 1.218 1.421c0.271 0.609 0.406 1.353 0.406 2.165 0 0.947-0.203 1.759-0.677 2.368-0.406 0.609-1.083 1.15-1.895 1.556 1.15 0.338 2.030 0.947 2.571 1.759s0.88 1.827 0.88 2.977c0 0.947-0.203 1.759-0.541 2.436s-0.88 1.286-1.489 1.692c-0.609 0.406-1.353 0.744-2.165 0.947s-1.624 0.338-2.436 0.338h-9.067v-18.676h8.864zM9.394 14.004c0.744 0 1.353-0.203 1.827-0.541s0.677-0.947 0.677-1.692c0-0.406-0.068-0.812-0.203-1.083s-0.338-0.474-0.609-0.677c-0.271-0.135-0.541-0.271-0.88-0.338s-0.677-0.068-1.083-0.068h-3.925v4.398h4.195zM9.597 21.988c0.406 0 0.812-0.068 1.15-0.135s0.677-0.203 0.947-0.406c0.271-0.203 0.474-0.406 0.677-0.744 0.135-0.338 0.271-0.744 0.271-1.218 0-0.947-0.271-1.624-0.812-2.098-0.541-0.406-1.286-0.609-2.165-0.609h-4.466v5.21h4.398zM22.657 21.921c0.541 0.541 1.353 0.812 2.436 0.812 0.744 0 1.421-0.203 1.962-0.541 0.541-0.406 0.88-0.812 1.015-1.218h3.316c-0.541 1.624-1.353 2.774-2.436 3.519-1.083 0.677-2.368 1.083-3.925 1.083-1.083 0-2.030-0.203-2.91-0.541s-1.556-0.812-2.165-1.489c-0.609-0.609-1.083-1.353-1.353-2.233-0.338-0.88-0.474-1.827-0.474-2.91 0-1.015 0.135-1.962 0.474-2.842s0.812-1.624 1.421-2.301c0.609-0.609 1.353-1.15 2.165-1.489 0.88-0.338 1.759-0.541 2.842-0.541 1.15 0 2.165 0.203 3.045 0.677s1.556 1.015 2.098 1.827c0.541 0.744 0.947 1.624 1.218 2.571 0.135 0.947 0.203 1.895 0.135 2.977h-9.812c0 1.083 0.406 2.098 0.947 2.639zM26.92 14.816c-0.474-0.474-1.218-0.744-2.098-0.744-0.609 0-1.083 0.135-1.489 0.338s-0.677 0.474-0.947 0.744c-0.271 0.271-0.406 0.609-0.474 0.947s-0.135 0.609-0.135 0.88h6.090c-0.135-1.015-0.474-1.692-0.947-2.165zM20.965 7.711h7.578v1.827h-7.578v-1.827z"></path>
</symbol>
<symbol id="icon-burger-menu" viewBox="0 0 32 32">
<path fill="#5f5f6e" style="fill: var(--color2, #5f5f6e)" d="M5.264 8h21.471c0.696 0 1.265 0.569 1.265 1.265v0.136c0 0.696-0.569 1.265-1.265 1.265h-21.471c-0.696 0-1.264-0.569-1.264-1.265v-0.136c0-0.696 0.568-1.265 1.264-1.265zM26.735 14.667h-21.471c-0.696 0-1.264 0.569-1.264 1.265v0.136c0 0.696 0.568 1.265 1.264 1.265h21.471c0.696 0 1.265-0.569 1.265-1.265v-0.136c0-0.696-0.569-1.265-1.265-1.265zM26.735 21.333h-21.471c-0.696 0-1.264 0.569-1.264 1.265v0.136c0 0.696 0.568 1.265 1.264 1.265h21.471c0.696 0 1.265-0.569 1.265-1.265v-0.136c0-0.696-0.569-1.265-1.265-1.265z"></path>
</symbol> 
<symbol id="icon-burger-close" viewBox="0 0 32 32">
<path fill="#fff" style="fill: var(--color2, #fff)" d="M5.264 8h21.471c0.698 0.002 1.263 0.567 1.265 1.265v0.137c-0.003 0.697-0.568 1.262-1.265 1.264h-21.471c-0.697-0.003-1.262-0.568-1.264-1.265v-0.136c0.002-0.698 0.567-1.263 1.264-1.265h0zM26.735 14.666h-21.471c-0.697 0.003-1.262 0.568-1.264 1.265v0.137c0.002 0.698 0.567 1.263 1.264 1.265h21.471c0.698-0.002 1.263-0.567 1.265-1.265v-0.137c-0.002-0.698-0.567-1.263-1.265-1.265h-0zM26.735 21.334h-21.471c-0.697 0.003-1.262 0.568-1.264 1.265v0.136c0.002 0.698 0.567 1.263 1.264 1.265h21.471c0.698-0.002 1.263-0.567 1.265-1.265v-0.137c-0.003-0.697-0.568-1.262-1.265-1.264h-0z"></path>
</symbol>
<symbol id="icon-calendar" viewBox="0 0 32 32">
<path fill="#50d86a" style="fill: var(--color1, #50d86a)" d="M25.333 14.667h-18.667v-5.333c0-0.735 0.599-1.333 1.333-1.333h1.333v1.333c0 0.733 0.6 1.333 1.333 1.333s1.333-0.6 1.333-1.333v-1.333h8v1.333c0 0.733 0.6 1.333 1.333 1.333s1.333-0.6 1.333-1.333v-1.333h1.333c0.735 0 1.333 0.599 1.333 1.333v5.333zM21.333 22.667h-5.333c-0.733 0-1.333-0.6-1.333-1.333s0.6-1.333 1.333-1.333h5.333c0.733 0 1.333 0.6 1.333 1.333s-0.6 1.333-1.333 1.333zM10.667 22.667c-0.733 0-1.333-0.6-1.333-1.333s0.6-1.333 1.333-1.333c0.733 0 1.333 0.6 1.333 1.333s-0.6 1.333-1.333 1.333zM24 5.333h-1.333v-1.333c0-0.733-0.6-1.333-1.333-1.333s-1.333 0.6-1.333 1.333v1.333h-8v-1.333c0-0.733-0.6-1.333-1.333-1.333s-1.333 0.6-1.333 1.333v1.333h-1.333c-2.205 0-4 1.795-4 4v16c0 2.205 1.795 4 4 4h16c2.205 0 4-1.795 4-4v-16c0-2.205-1.795-4-4-4z"></path>
<path fill="#50d86a" style="fill: var(--color1, #50d86a)" d="M0 0h32v32h-32v-32z"></path>
</symbol>
<symbol id="icon-circles" viewBox="0 0 32 32">
<path fill="#231f20" style="fill: var(--color3, #231f20)" d="M16 9.333c1.472 0 2.667-1.195 2.667-2.667s-1.195-2.667-2.667-2.667c-1.472 0-2.667 1.195-2.667 2.667s1.195 2.667 2.667 2.667zM16 13.333c-1.472 0-2.667 1.195-2.667 2.667s1.195 2.667 2.667 2.667c1.472 0 2.667-1.195 2.667-2.667s-1.195-2.667-2.667-2.667zM13.333 25.333c0-1.472 1.195-2.667 2.667-2.667s2.667 1.195 2.667 2.667c0 1.472-1.195 2.667-2.667 2.667s-2.667-1.195-2.667-2.667z"></path>
<path fill="#8e8e96" style="fill: var(--color5, #8e8e96)" d="M0 0h32v32h-32v-32z"></path>
</symbol>
<symbol id="icon-coins" viewBox="0 0 32 32">
<path fill="#fff" style="fill: var(--color2, #fff)" d="M16 13.333c5.301 0 10.667-1.832 10.667-5.333s-5.365-5.333-10.667-5.333c-5.301 0-10.667 1.832-10.667 5.333s5.365 5.333 10.667 5.333z"></path>
<path fill="#fff" style="fill: var(--color2, #fff)" d="M5.333 13.333c0 3.501 5.365 5.333 10.667 5.333s10.667-1.832 10.667-5.333v-2.667c0 3.501-5.365 5.333-10.667 5.333s-10.667-1.832-10.667-5.333v2.667z"></path>
<path fill="#fff" style="fill: var(--color2, #fff)" d="M5.333 18.667c0 3.501 5.365 5.333 10.667 5.333s10.667-1.832 10.667-5.333v-2.667c0 3.501-5.365 5.333-10.667 5.333s-10.667-1.832-10.667-5.333v2.667z"></path>
<path fill="#fff" style="fill: var(--color2, #fff)" d="M5.333 24c0 3.501 5.365 5.333 10.667 5.333s10.667-1.832 10.667-5.333v-2.667c0 3.501-5.365 5.333-10.667 5.333s-10.667-1.832-10.667-5.333v2.667z"></path>
</symbol>
<symbol id="icon-comments" viewBox="0 0 32 32">
<path fill="#1c1c24" style="fill: var(--color6, #1c1c24)" d="M32 16c0 8.837-7.163 16-16 16s-16-7.163-16-16c0-8.837 7.163-16 16-16s16 7.163 16 16z"></path>
<path fill="#231f20" style="fill: var(--color3, #231f20)" d="M19.333 16c-0.46 0-0.833-0.373-0.833-0.833s0.373-0.833 0.833-0.833c0.46 0 0.833 0.373 0.833 0.833s-0.373 0.833-0.833 0.833zM16 16c-0.46 0-0.833-0.373-0.833-0.833s0.373-0.833 0.833-0.833c0.46 0 0.833 0.373 0.833 0.833s-0.373 0.833-0.833 0.833zM12.667 16c-0.46 0-0.833-0.373-0.833-0.833s0.373-0.833 0.833-0.833c0.46 0 0.833 0.373 0.833 0.833s-0.373 0.833-0.833 0.833zM21.833 8.5h-11.667c-1.378 0-2.5 1.122-2.5 2.5v12.5c0 0.3 0.162 0.578 0.422 0.725 0.127 0.073 0.269 0.108 0.411 0.108 0.148 0 0.297-0.039 0.429-0.119l3.77-2.262c0.13-0.078 0.278-0.119 0.429-0.119h8.705c1.378 0 2.5-1.122 2.5-2.5v-8.333c0-1.378-1.122-2.5-2.5-2.5z"></path>
<path fill="#50d86a" style="fill: var(--color1, #50d86a)" d="M6 6h20v20h-20v-20z"></path>
</symbol>
<symbol id="icon-delete" viewBox="0 0 32 32">
<path fill="#e24444" style="fill: var(--color7, #e24444)" d="M22.4 22.4c0 0.88-0.72 1.6-1.6 1.6s-1.6-0.72-1.6-1.6v-6.4c0-0.88 0.72-1.6 1.6-1.6s1.6 0.72 1.6 1.6v6.4zM12.8 3.725c0-0.248 0.342-0.525 0.8-0.525h4.8c0.458 0 0.8 0.277 0.8 0.525v2.675h-6.4v-2.675zM12.8 22.4c0 0.88-0.72 1.6-1.6 1.6s-1.6-0.72-1.6-1.6v-6.4c0-0.88 0.72-1.6 1.6-1.6s1.6 0.72 1.6 1.6v6.4zM30.4 6.4h-8v-2.675c0-2.054-1.794-3.725-4-3.725h-4.8c-2.206 0-4 1.67-4 3.725v2.675h-8c-0.88 0-1.6 0.72-1.6 1.6s0.72 1.6 1.6 1.6h1.6v17.6c0 2.646 2.154 4.8 4.8 4.8h16c2.646 0 4.8-2.154 4.8-4.8v-17.6h1.6c0.88 0 1.6-0.72 1.6-1.6s-0.72-1.6-1.6-1.6z"></path>
</symbol>
<symbol id="icon-dollar" viewBox="0 0 32 32">
<path fill="#ffa10b" style="fill: var(--color8, #ffa10b)" d="M16 29.333c7.364 0 13.333-5.97 13.333-13.333s-5.97-13.333-13.333-13.333c-7.364 0-13.333 5.97-13.333 13.333s5.97 13.333 13.333 13.333zM15.38 11.869c-0.827 0.096-1.436 0.592-1.436 1.383 0 0.627 0.4 1.079 1.192 1.34 0.078 0.026 0.157 0.052 0.244 0.070v-2.793zM16.72 20.179c0.922-0.078 1.575-0.644 1.575-1.497 0-0.713-0.426-1.192-1.401-1.462-0.052-0.009-0.113-0.026-0.174-0.043v3.002zM16.729 22.058l0.009 1.105h-1.41l0.009-1.088c-2.88-0.209-3.959-1.906-3.976-3.515h2.28c0.043 0.8 0.626 1.47 1.74 1.618v-3.237l-0.748-0.165c-1.618-0.357-3.045-1.366-3.045-3.341 0-2.088 1.653-3.246 3.759-3.437v-1.122h1.41v1.131c2.201 0.235 3.62 1.61 3.655 3.419h-2.228c-0.026-0.696-0.539-1.392-1.462-1.54v3.037l0.74 0.157c1.749 0.374 3.167 1.262 3.167 3.367 0 2.071-1.514 3.385-3.898 3.611z"></path>
</symbol>
<symbol id="icon-dribble" viewBox="0 0 32 32">
<path fill="#fff" style="fill: var(--color2, #fff)" d="M16 31.981c-8.825 0-16-7.163-16-15.975 0-8.825 7.175-15.988 16-15.988s16 7.162 16 15.975-7.175 15.988-16 15.988zM29.488 18.181c-0.463-0.15-4.225-1.263-8.512-0.588 1.788 4.9 2.512 8.9 2.65 9.725 3.075-2.062 5.263-5.337 5.863-9.137zM21.337 28.581c-0.2-1.2-1-5.375-2.912-10.35-0.025 0.012-0.062 0.025-0.088 0.025-7.712 2.687-10.475 8.025-10.725 8.525 2.313 1.8 5.225 2.875 8.387 2.875 1.888 0.012 3.7-0.375 5.337-1.075zM5.85 25.144c0.313-0.525 4.063-6.725 11.113-9.012 0.175-0.062 0.362-0.112 0.537-0.162-0.337-0.775-0.712-1.55-1.112-2.313-6.825 2.037-13.45 1.95-14.050 1.938 0 0.137-0.013 0.275-0.013 0.413 0.013 3.512 1.337 6.712 3.525 9.137zM2.625 13.219c0.612 0.012 6.238 0.037 12.637-1.662-2.262-4.025-4.713-7.4-5.063-7.888-3.838 1.8-6.688 5.325-7.575 9.55zM12.8 2.744c0.375 0.5 2.863 3.875 5.1 7.987 4.863-1.825 6.912-4.575 7.163-4.925-2.413-2.138-5.588-3.438-9.063-3.438-1.1 0-2.175 0.138-3.2 0.375zM26.575 7.381c-0.288 0.388-2.575 3.325-7.625 5.388 0.312 0.65 0.625 1.313 0.912 1.975 0.1 0.238 0.2 0.475 0.3 0.7 4.55-0.575 9.062 0.35 9.512 0.438-0.038-3.213-1.188-6.175-3.1-8.5z"></path>
</symbol>
<symbol id="icon-empty-mask" viewBox="0 0 32 32">
<path d="M28.281 26.235c0 1.13-0.786 2.046-1.754 2.046h-21.053l13.274-11.96c0.432-0.43 1.214-0.428 1.637-0.002l7.896 7.856v2.060zM8.982 7.228c1.453 0 2.632 1.179 2.632 2.632s-1.179 2.632-2.632 2.632c-1.453 0-2.632-1.179-2.632-2.632s1.179-2.632 2.632-2.632zM26.526 0.211h-21.053c-2.902 0-5.263 2.361-5.263 5.263v21.053c0 2.902 2.361 5.263 5.263 5.263h21.053c2.902 0 5.263-2.361 5.263-5.263v-21.053c0-2.902-2.361-5.263-5.263-5.263z"></path>
</symbol>
<symbol id="icon-facebook" viewBox="0 0 32 32">
<path fill="#fff" style="fill: var(--color2, #fff)" d="M18.402 32v-14.597h4.9l0.734-5.689h-5.633v-3.632c0-1.647 0.457-2.769 2.819-2.769l3.012-0.001v-5.088c-0.521-0.069-2.309-0.224-4.389-0.224-4.343 0-7.316 2.651-7.316 7.519v4.195h-4.912v5.689h4.912v14.597l5.874-0z"></path>
</symbol>
<symbol id="icon-flash" viewBox="0 0 32 32">
<path fill="#fff" style="fill: var(--color2, #fff)" d="M14.815 30.667c-0.152 0-0.305-0.027-0.456-0.081-0.576-0.209-0.936-0.785-0.869-1.395l1.024-9.457h-7.847c-0.492 0-0.944-0.271-1.176-0.705s-0.205-0.96 0.068-1.369l10.517-15.733c0.341-0.511 0.987-0.723 1.564-0.511 0.577 0.209 0.936 0.785 0.869 1.395l-1.024 9.457h7.848c0.492 0 0.944 0.271 1.176 0.705 0.231 0.435 0.205 0.96-0.068 1.369l-10.519 15.733c-0.252 0.379-0.673 0.592-1.108 0.592z"></path>
<path fill="#fff" style="fill: var(--color2, #fff)" d="M0 0h32v32h-32v-32z"></path>
</symbol>
<symbol id="icon-followers" viewBox="0 0 32 32">
<path fill="#1c1c24" style="fill: var(--color6, #1c1c24)" d="M32 16c0 8.837-7.163 16-16 16s-16-7.163-16-16c0-8.837 7.163-16 16-16s16 7.163 16 16z"></path>
<path fill="#231f20" style="fill: var(--color3, #231f20)" d="M13.5 15.167c1.838 0 3.333-1.495 3.333-3.333s-1.495-3.333-3.333-3.333c-1.838 0-3.333 1.495-3.333 3.333s1.495 3.333 3.333 3.333zM20.167 16.833c1.378 0 2.5-1.122 2.5-2.5s-1.122-2.5-2.5-2.5c-1.378 0-2.5 1.122-2.5 2.5s1.122 2.5 2.5 2.5zM24.333 21.833c0 0.46-0.373 0.833-0.833 0.833h-4.167c0 0.46-0.372 0.833-0.833 0.833h-10c-0.461 0-0.833-0.373-0.833-0.833 0-3.217 2.618-5.833 5.833-5.833 1.606 0 3.061 0.652 4.117 1.705 0.724-0.56 1.616-0.872 2.55-0.872 2.298 0 4.167 1.869 4.167 4.167z"></path>
<path fill="#a86ce4" style="fill: var(--color9, #a86ce4)" d="M6 6h20v20h-20v-20z"></path>
</symbol>
<symbol id="icon-heart" viewBox="0 0 32 32">
<path fill="#e24444" style="fill: var(--color7, #e24444)" d="M16 28c-0.355 0-0.693-0.14-0.944-0.392l-10.356-10.373c-2.715-2.72-2.715-7.145 0-9.865 1.311-1.312 3.061-2.036 4.927-2.036s3.616 0.724 4.927 2.036l1.447 1.449 1.445-1.448c1.312-1.313 3.063-2.037 4.928-2.037s3.616 0.724 4.927 2.036c2.715 2.72 2.715 7.145 0.001 9.865l-10.357 10.375c-0.251 0.251-0.589 0.391-0.944 0.391z"></path>
<path fill="#e24444" style="fill: var(--color7, #e24444)" d="M0 0h32v32h-32v-32z"></path>
</symbol>
<symbol id="icon-help" viewBox="0 0 32 32">
<path d="M17.333 17.116v1.551c0 0.737-0.596 1.333-1.333 1.333s-1.333-0.596-1.333-1.333v-2.667c0-0.737 0.596-1.333 1.333-1.333 1.103 0 2-0.897 2-2s-0.897-2-2-2c-1.103 0-2 0.897-2 2 0 0.737-0.596 1.333-1.333 1.333s-1.333-0.596-1.333-1.333c0-2.573 2.093-4.667 4.667-4.667s4.667 2.093 4.667 4.667c0 2.107-1.413 3.871-3.333 4.449zM16 24c-0.737 0-1.333-0.596-1.333-1.333s0.596-1.333 1.333-1.333c0.737 0 1.333 0.596 1.333 1.333s-0.596 1.333-1.333 1.333zM16 2.667c-7.352 0-13.333 5.981-13.333 13.333s5.981 13.333 13.333 13.333c7.352 0 13.333-5.981 13.333-13.333s-5.981-13.333-13.333-13.333z"></path>
</symbol>
<symbol id="icon-like" viewBox="0 0 32 32">
<path fill="#1c1c24" style="fill: var(--color6, #1c1c24)" d="M32 16c0 8.837-7.163 16-16 16s-16-7.163-16-16c0-8.837 7.163-16 16-16s16 7.163 16 16z"></path>
<path fill="#231f20" style="fill: var(--color3, #231f20)" d="M16 23.5c-0.222 0-0.433-0.087-0.59-0.245l-6.473-6.483c-1.697-1.7-1.697-4.466 0-6.166 0.819-0.82 1.913-1.273 3.079-1.273s2.26 0.453 3.079 1.273l0.904 0.906 0.903-0.905c0.82-0.821 1.914-1.273 3.080-1.273s2.26 0.453 3.079 1.272c1.697 1.7 1.697 4.466 0.001 6.166l-6.473 6.484c-0.157 0.157-0.368 0.244-0.59 0.244z"></path>
<path fill="#e24444" style="fill: var(--color7, #e24444)" d="M6 6h20v20h-20v-20z"></path>
</symbol>
<symbol id="icon-log-out" viewBox="0 0 32 32">
<path fill="#e24444" style="fill: var(--color7, #e24444)" d="M10.667 6.667c0 0.733-0.6 1.333-1.333 1.333h-1.333v16h1.333c0.733 0 1.333 0.6 1.333 1.333s-0.6 1.333-1.333 1.333h-2.667c-0.733 0-1.333-0.6-1.333-1.333v-18.667c0-0.733 0.6-1.333 1.333-1.333h2.667c0.733 0 1.333 0.6 1.333 1.333zM24.005 9.9l3.752 5.333c0.333 0.472 0.323 1.105-0.024 1.567l-4 5.333c-0.261 0.349-0.663 0.533-1.068 0.533-0.277 0-0.559-0.087-0.799-0.267-0.589-0.441-0.708-1.277-0.267-1.865l2.4-3.201h-10.667c-0.736 0-1.333-0.596-1.333-1.333s0.597-1.333 1.333-1.333h10.667c0.022 0 0.042 0.006 0.063 0.012 0.017 0.005 0.034 0.010 0.052 0.012l-2.291-3.257c-0.424-0.601-0.279-1.433 0.324-1.857 0.601-0.425 1.433-0.279 1.857 0.324z"></path>
</symbol>
<symbol id="icon-logo" viewBox="0 0 32 32">
<path fill="#ffffff" style="fill: var(--color3, #ffffff)" d="M27.99 9.284c-0.003-0.096-0.031-0.187-0.056-0.279-0.020-0.077-0.029-0.156-0.063-0.227-0.031-0.069-0.083-0.125-0.128-0.189-0.056-0.081-0.107-0.163-0.179-0.229-0.012-0.012-0.017-0.028-0.031-0.039-0.048-0.041-0.107-0.056-0.159-0.089-0.080-0.052-0.159-0.105-0.249-0.14-0.089-0.032-0.177-0.040-0.269-0.053-0.064-0.009-0.121-0.039-0.189-0.039h-6.667c-0.737 0-1.333 0.597-1.333 1.333s0.596 1.333 1.333 1.333h3.768l-5.381 6.277-5.701-3.42c-0.564-0.341-1.289-0.216-1.711 0.289l-6.667 8c-0.471 0.565-0.395 1.407 0.171 1.877 0.251 0.208 0.552 0.309 0.853 0.309 0.383 0 0.761-0.163 1.025-0.48l5.936-7.123 5.687 3.413c0.559 0.335 1.276 0.217 1.699-0.276l5.655-6.597v3.063c0 0.736 0.596 1.333 1.333 1.333s1.333-0.597 1.333-1.333v-6.667c0-0.017-0.009-0.032-0.011-0.049z"></path>
</symbol>
<symbol id="icon-news" viewBox="0 0 32 32">
<path d="M22.518 24.425c-0.229-0.577-0.555-1.081-0.84-1.512-0.144-0.216-0.292-0.436-0.421-0.663-0.519-0.901-0.34-1.267 0.501-2.676l0.136-0.231c0.681-1.148 0.719-2.249 0.753-3.22 0.016-0.477 0.032-0.927 0.124-1.349 0.215-0.976 2.277-1.236 3.556-1.389 0.215 0.839 0.339 1.712 0.339 2.616 0 3.425-1.629 6.471-4.148 8.424zM16 5.334c0.821 0 1.615 0.101 2.383 0.277-0.225 0.496-0.573 0.948-1.032 1.307-0.291 0.229-0.617 0.42-0.941 0.613-0.868 0.517-1.851 1.104-2.467 2.232-0.821 1.507-0.821 3.045-0.821 4.403 0 1.807-0.059 2.875-1.264 3.817-1.825 1.431-4.619 0.632-6.347-0.095-0.109-0.615-0.177-1.244-0.177-1.888 0-5.881 4.785-10.667 10.667-10.667zM16 2.667c-7.352 0-13.333 5.981-13.333 13.333 0 7.351 5.981 13.333 13.333 13.333s13.333-5.983 13.333-13.333c0-7.352-5.981-13.333-13.333-13.333z"></path>
</symbol>
<symbol id="icon-pause" viewBox="0 0 32 32">
<path fill="#fff" style="fill: var(--color2, #fff)" d="M21.333 20c0 0.733-0.6 1.333-1.333 1.333s-1.333-0.6-1.333-1.333v-8c0-0.733 0.6-1.333 1.333-1.333s1.333 0.6 1.333 1.333v8zM13.333 20c0 0.733-0.6 1.333-1.333 1.333s-1.333-0.6-1.333-1.333v-8c0-0.733 0.6-1.333 1.333-1.333s1.333 0.6 1.333 1.333v8zM15.999 2.667c-7.352 0-13.333 5.981-13.333 13.333s5.981 13.333 13.333 13.333c7.353 0 13.333-5.981 13.333-13.333s-5.98-13.333-13.333-13.333z"></path>
<path fill="#fff" style="fill: var(--color2, #fff)" d="M0 0h32v32h-32v-32z"></path>
</symbol>
<symbol id="icon-person-add" viewBox="0 0 32 32">
<path fill="#a86ce4" style="fill: var(--color9, #a86ce4)" d="M13.333 14.667c2.941 0 5.333-2.392 5.333-5.333s-2.392-5.333-5.333-5.333c-2.941 0-5.333 2.392-5.333 5.333s2.392 5.333 5.333 5.333zM28 8h-1.333v-1.333c0-0.733-0.6-1.333-1.333-1.333s-1.333 0.6-1.333 1.333v1.333h-1.333c-0.733 0-1.333 0.6-1.333 1.333s0.6 1.333 1.333 1.333h1.333v1.333c0 0.733 0.6 1.333 1.333 1.333s1.333-0.6 1.333-1.333v-1.333h1.333c0.733 0 1.333-0.6 1.333-1.333s-0.6-1.333-1.333-1.333zM22.667 26.667c0 0.736-0.596 1.333-1.333 1.333h-16c-0.737 0-1.333-0.597-1.333-1.333 0-5.147 4.188-9.333 9.333-9.333s9.333 4.187 9.333 9.333z"></path>
<path fill="#a86ce4" style="fill: var(--color9, #a86ce4)" d="M0 0h32v32h-32v-32z"></path>
</symbol>
<symbol id="icon-person" viewBox="0 0 32 32">
<path d="M21.333 9.333c0 2.941-2.392 5.333-5.333 5.333s-5.333-2.392-5.333-5.333c0-2.941 2.392-5.333 5.333-5.333s5.333 2.392 5.333 5.333zM25.333 26.667c0 0.736-0.596 1.333-1.333 1.333h-16c-0.737 0-1.333-0.597-1.333-1.333 0-5.147 4.188-9.333 9.333-9.333s9.333 4.187 9.333 9.333z"></path>
</symbol>
<symbol id="icon-play" viewBox="0 0 32 32">
<path fill="#5f5f6e" style="fill: var(--color4, #5f5f6e)" d="M15.2 20.159l4.494-4.16-4.494-4.158v8.318zM22.368 17.886l-5.827 5.392c-0.51 0.474-1.174 0.722-1.851 0.722-0.373 0-0.752-0.077-1.109-0.232-0.976-0.426-1.581-1.336-1.581-2.376v-10.784c0-1.038 0.605-1.95 1.581-2.374 1.002-0.44 2.165-0.248 2.962 0.49l5.826 5.392c0.53 0.488 0.832 1.176 0.832 1.885 0 0.71-0.302 1.397-0.832 1.886zM16-0.001c-8.822 0-16 7.179-16 16 0 8.822 7.178 16 16 16s16-7.178 16-16c0-8.821-7.178-16-16-16z"></path>
</symbol>
<symbol id="icon-plus" viewBox="0 0 32 32">
<path d="M25.333 14.667h-8v-8c0-0.737-0.597-1.333-1.333-1.333s-1.333 0.596-1.333 1.333v8h-8c-0.736 0-1.333 0.596-1.333 1.333s0.597 1.333 1.333 1.333h8v8c0 0.737 0.597 1.333 1.333 1.333s1.333-0.596 1.333-1.333v-8h8c0.736 0 1.333-0.596 1.333-1.333s-0.597-1.333-1.333-1.333z"></path>
</symbol>
<symbol id="icon-sun" viewBox="0 0 32 32">
<path d="M16 8c0.736 0 1.333-0.596 1.333-1.333v-2.667c0-0.737-0.597-1.333-1.333-1.333s-1.333 0.596-1.333 1.333v2.667c0 0.737 0.597 1.333 1.333 1.333zM28 14.667h-2.667c-0.736 0-1.333 0.596-1.333 1.333s0.597 1.333 1.333 1.333h2.667c0.736 0 1.333-0.596 1.333-1.333s-0.597-1.333-1.333-1.333zM6.667 14.667c0.736 0 1.333 0.596 1.333 1.333s-0.597 1.333-1.333 1.333h-2.667c-0.736 0-1.333-0.596-1.333-1.333s0.597-1.333 1.333-1.333h2.667zM8.294 6.704c-0.529-0.511-1.373-0.495-1.885 0.033-0.512 0.529-0.497 1.375 0.032 1.885l1.919 1.853c0.26 0.251 0.593 0.373 0.927 0.373 0.349 0 0.697-0.136 0.959-0.407 0.512-0.529 0.497-1.375-0.032-1.885l-1.919-1.853zM23.64 10.477c-0.26 0.249-0.593 0.373-0.927 0.373-0.349 0-0.697-0.137-0.959-0.408-0.512-0.528-0.497-1.373 0.032-1.885l1.919-1.852c0.532-0.511 1.375-0.495 1.885 0.033 0.512 0.528 0.497 1.373-0.032 1.885l-1.919 1.853zM16 24c-0.736 0-1.333 0.596-1.333 1.333v2.667c0 0.737 0.597 1.333 1.333 1.333s1.333-0.596 1.333-1.333v-2.667c0-0.737-0.597-1.333-1.333-1.333zM21.755 21.557c0.512-0.528 1.356-0.544 1.885-0.033l1.919 1.853c0.529 0.511 0.544 1.356 0.032 1.885-0.261 0.271-0.609 0.407-0.959 0.407-0.333 0-0.667-0.123-0.927-0.373l-1.919-1.853c-0.529-0.511-0.544-1.356-0.032-1.885zM8.36 21.523l-1.919 1.853c-0.529 0.511-0.544 1.356-0.032 1.885 0.261 0.271 0.609 0.407 0.959 0.407 0.333 0 0.667-0.123 0.927-0.373l1.919-1.853c0.529-0.511 0.544-1.356 0.032-1.885-0.511-0.528-1.355-0.544-1.885-0.033zM10.667 16c0-2.941 2.392-5.333 5.333-5.333s5.333 2.392 5.333 5.333c0 2.941-2.392 5.333-5.333 5.333s-5.333-2.392-5.333-5.333z"></path>
</symbol>
<symbol id="icon-task-list" viewBox="0 0 32 32">
<path d="M6.667 4h5.333c1.471 0 2.667 1.196 2.667 2.667v5.333c0 1.471-1.196 2.667-2.667 2.667h-5.333c-1.471 0-2.667-1.196-2.667-2.667v-5.333c0-1.471 1.196-2.667 2.667-2.667zM20 4h5.333c1.471 0 2.667 1.196 2.667 2.667v5.333c0 1.471-1.196 2.667-2.667 2.667h-5.333c-1.471 0-2.667-1.196-2.667-2.667v-5.333c0-1.471 1.196-2.667 2.667-2.667zM12 17.333h-5.333c-1.471 0-2.667 1.196-2.667 2.667v5.333c0 1.471 1.196 2.667 2.667 2.667h5.333c1.471 0 2.667-1.196 2.667-2.667v-5.333c0-1.471-1.196-2.667-2.667-2.667zM20 17.333h5.333c1.471 0 2.667 1.196 2.667 2.667v5.333c0 1.471-1.196 2.667-2.667 2.667h-5.333c-1.471 0-2.667-1.196-2.667-2.667v-5.333c0-1.471 1.196-2.667 2.667-2.667z"></path>
</symbol>
<symbol id="icon-telegram" viewBox="0 0 32 32">
<path fill="#5F5F6E" style="fill: var(--color4, #5f5f6e)" d="M24.292 30.164c1.917 0.875 2.636-0.958 2.636-0.958l5.072-26.573c-0.040-1.791-2.356-0.708-2.356-0.708l-28.398 11.62c0 0-1.358 0.5-1.238 1.374s1.198 1.291 1.198 1.291l7.149 2.499c0 0 2.157 7.372 2.596 8.788 0.399 1.375 0.759 1.416 0.759 1.416 0.399 0.167 0.759-0.125 0.759-0.125l4.633-4.373 7.189 5.748zM25.53 7.339c0 0 0.999-0.625 0.959 0 0 0 0.16 0.083-0.36 0.666-0.479 0.5-11.782 11.079-13.3 12.495-0.12 0.083-0.2 0.208-0.2 0.375l-0.439 3.915c-0.080 0.416-0.599 0.458-0.719 0.083l-1.877-6.414c-0.080-0.25 0-0.541 0.24-0.708l15.697-10.413z"></path>
</symbol>
<symbol id="icon-twitter" viewBox="0 0 32 32">
<path fill="#5F5F6E" style="fill: var(--color2, #5F5F6E)" d="M27.54 9.697c0 0.276 0 0.553 0 0.789 0 8.171-6.237 17.605-17.605 17.605-3.513 0-6.75-1.026-9.513-2.763 0.474 0.039 0.987 0.079 1.461 0.079 2.882 0 5.566-0.987 7.697-2.645-2.724-0.039-5.013-1.855-5.763-4.303 0.395 0.079 0.75 0.118 1.184 0.118 0.553 0 1.105-0.079 1.618-0.237-2.842-0.553-4.974-3.039-4.974-6.039 0-0.039 0-0.039 0-0.079 0.829 0.474 1.776 0.75 2.803 0.789-1.658-1.105-2.763-3-2.763-5.171 0-1.145 0.316-2.211 0.829-3.118 3.039 3.75 7.618 6.197 12.75 6.474-0.118-0.434-0.158-0.947-0.158-1.421 0-3.434 2.763-6.197 6.197-6.197 1.776 0 3.395 0.75 4.5 1.934 1.421-0.276 2.724-0.789 3.947-1.5-0.474 1.461-1.461 2.645-2.724 3.434 1.263-0.158 2.447-0.474 3.552-0.987-0.789 1.263-1.816 2.368-3.039 3.237z"></path>
</symbol>
<symbol id="icon-views" viewBox="0 0 32 32">
<path fill="#1c1c24" style="fill: var(--color6, #1c1c24)" d="M32 16c0 8.837-7.163 16-16 16s-16-7.163-16-16c0-8.837 7.163-16 16-16s16 7.163 16 16z"></path>
<path fill="#231f20" style="fill: var(--color3, #231f20)" d="M16 14.75c-0.689 0-1.25 0.561-1.25 1.25s0.561 1.25 1.25 1.25c0.689 0 1.25-0.561 1.25-1.25s-0.561-1.25-1.25-1.25zM16 18.916c-1.608 0-2.917-1.308-2.917-2.917s1.308-2.917 2.917-2.917c1.608 0 2.917 1.308 2.917 2.917s-1.308 2.917-2.917 2.917zM24.223 15.585c-0.533-0.927-3.468-5.572-8.449-5.416-4.606 0.117-7.286 4.176-7.997 5.416-0.147 0.258-0.147 0.573 0 0.83 0.525 0.914 3.358 5.418 8.244 5.418 0.067 0 0.136-0.001 0.205-0.002 4.606-0.118 7.286-4.176 7.998-5.416 0.147-0.258 0.147-0.572 0-0.83z"></path>
<path fill="#ffa10b" style="fill: var(--color8, #ffa10b)" d="M6 6h20v20h-20v-20z"></path>
</symbol>
<symbol id="icon-vk" viewBox="0 0 32 32">
<path fill="#5F5F6E" style="fill: var(--color2, #5F5F6E)" d="M31.266 7.734c0.223-0.742 0-1.287-1.059-1.287h-3.501c-0.89 0-1.3 0.471-1.523 0.99 0 0-1.78 4.339-4.303 7.158-0.816 0.816-1.187 1.075-1.632 1.075-0.223 0-0.545-0.259-0.545-1.001v-6.936c0-0.89-0.258-1.287-1-1.287h-5.501c-0.556 0-0.891 0.413-0.891 0.805 0 0.844 1.261 1.038 1.391 3.412v5.155c0 1.13-0.204 1.335-0.649 1.335-1.187 0-4.073-4.359-5.786-9.346-0.336-0.969-0.672-1.361-1.567-1.361h-3.501c-1 0-1.2 0.471-1.2 0.99 0 0.927 1.187 5.526 5.526 11.609 2.893 4.153 6.969 6.406 10.678 6.406 2.225 0 2.5-0.5 2.5-1.362v-3.14c0-1 0.211-1.2 0.915-1.2 0.52 0 1.41 0.26 3.487 2.262 2.374 2.373 2.765 3.439 4.1 3.439h3.501c1 0 1.5-0.5 1.212-1.487-0.316-0.984-1.449-2.411-2.953-4.102-0.816-0.964-2.040-2.003-2.411-2.522-0.519-0.668-0.371-0.964 0-1.557 0 0 4.265-6.008 4.71-8.048v-0z"></path>
</symbol>
</defs>
</svg>
