<svg aria-hidden="true" style="position: absolute; width: 0; height: 0; overflow: hidden;" version="1.1" xmlns="http://www.w3.org/2000/svg" xmlns:xlink="http://www.w3.org/1999/xlink">
<defs>
<symbol id="icon-accept" viewBox="0 0 32 32">
<path fill="#50d86a" style="fill: var(--color1, #50d86a)" d="M32 16c0 8.837-7.163 16-16 16s-16-7.163-16-16c0-8.837 7.163-16 16-16s16 7.163 16 16z"></path>
<path fill="#fff" style="fill: var(--color2, #fff)" d="M14.006 21.6c-0.258 0-0.504-0.106-0.68-0.294l-4.539-4.834c-0.354-0.375-0.334-0.966 0.041-1.319s0.967-0.334 1.319 0.041l3.85 4.098 7.847-8.588c0.349-0.382 0.939-0.407 1.32-0.060s0.406 0.938 0.059 1.318l-8.528 9.333c-0.175 0.192-0.423 0.302-0.682 0.304h-0.007z"></path>
<path fill="#fff" style="fill: var(--color2, #fff)" d="M4.8 4.8h22.4v22.4h-22.4v-22.4z"></path>
</symbol>
<symbol id="icon-arrow" viewBox="0 0 32 32">
<path fill="#231f20" style="fill: var(--color3, #231f20)" d="M16 21.333c-0.304 0-0.607-0.103-0.853-0.309l-8-6.667c-0.565-0.471-0.643-1.312-0.171-1.877 0.471-0.565 1.311-0.641 1.877-0.171l7.161 5.968 7.149-5.753c0.573-0.461 1.413-0.371 1.875 0.203s0.371 1.412-0.203 1.875l-8 6.437c-0.244 0.196-0.54 0.295-0.836 0.295z"></path>
<path fill="#5f5f6e" style="fill: var(--color4, #5f5f6e)" d="M0 0h32v32h-32v-32z"></path>
</symbol>
<symbol id="icon-behance" viewBox="0 0 32 32"><path fill="var(--color1, #0057ff)" d="M10.667 0h10.667c5.891 0 10.667 4.776 10.667 10.667v10.667c0 5.891-4.776 10.667-10.667 10.667H10.667C4.776 32.001 0 27.225 0 21.334V10.667C0 4.776 4.776 0 10.667 0z"/><path fill="var(--color1, #0057ff)" d="M16 4c6.627 0 12 5.373 12 12s-5.373 12-12 12S4 22.627 4 16 9.373 4 16 4z"/><path fill="var(--color2, #fff)" d="M13.216 10.973c.462 0 .888.036 1.279.142.391.071.71.213.995.391s.497.426.639.746c.142.32.213.71.213 1.137 0 .497-.107.924-.355 1.243-.213.32-.568.604-.995.817.604.178 1.066.497 1.35.924s.462.959.462 1.563c0 .497-.107.924-.284 1.279s-.462.675-.782.888c-.32.213-.71.391-1.137.497s-.853.178-1.279.178h-4.76v-9.805h4.654zm-.284 3.979c.391 0 .71-.107.959-.284s.355-.497.355-.888c0-.213-.036-.426-.107-.568s-.178-.249-.32-.355c-.142-.071-.284-.142-.462-.178s-.355-.036-.568-.036h-2.06v2.309h2.203zm.107 4.192c.213 0 .426-.036.604-.071s.355-.107.497-.213.249-.213.355-.391a1.7 1.7 0 00.142-.639c0-.497-.142-.853-.426-1.101-.284-.213-.675-.32-1.137-.32h-2.345v2.735h2.309zm6.856-.036c.284.284.71.426 1.279.426.391 0 .746-.107 1.03-.284.284-.213.462-.426.533-.639h1.741c-.284.853-.71 1.457-1.279 1.847-.568.355-1.243.568-2.06.568-.568 0-1.066-.107-1.528-.284s-.817-.426-1.137-.782c-.32-.32-.568-.71-.71-1.172-.178-.462-.249-.959-.249-1.528 0-.533.071-1.03.249-1.492s.426-.853.746-1.208c.32-.32.71-.604 1.137-.782a3.981 3.981 0 011.492-.284c.604 0 1.137.107 1.599.355s.817.533 1.101.959c.284.391.497.853.639 1.35.071.497.107.995.071 1.563h-5.151c0 .568.213 1.101.497 1.385zm2.238-3.73c-.249-.249-.639-.391-1.101-.391-.32 0-.568.071-.782.178s-.355.249-.497.391-.213.32-.249.497c-.036.178-.071.32-.071.462h3.197c-.071-.533-.249-.888-.497-1.137zm-3.126-3.73h3.979v.959h-3.979v-.959z"/></symbol>

<symbol id="icon-burger-menu" viewBox="0 0 32 32">
<path fill="#5f5f6e" style="fill: var(--color4, #5f5f6e)" d="M5.264 8h21.471c0.696 0 1.265 0.569 1.265 1.265v0.136c0 0.696-0.569 1.265-1.265 1.265h-21.471c-0.696 0-1.264-0.569-1.264-1.265v-0.136c0-0.696 0.568-1.265 1.264-1.265zM26.735 14.667h-21.471c-0.696 0-1.264 0.569-1.264 1.265v0.136c0 0.696 0.568 1.265 1.264 1.265h21.471c0.696 0 1.265-0.569 1.265-1.265v-0.136c0-0.696-0.569-1.265-1.265-1.265zM26.735 21.333h-21.471c-0.696 0-1.264 0.569-1.264 1.265v0.136c0 0.696 0.568 1.265 1.264 1.265h21.471c0.696 0 1.265-0.569 1.265-1.265v-0.136c0-0.696-0.569-1.265-1.265-1.265z"></path>
<path fill="#5f5f6e" style="fill: var(--color4, #5f5f6e)" d="M0 0h32v32h-32v-32z"></path>
</symbol>
<symbol id="icon-calendar" viewBox="0 0 32 32">
<path fill="#50d86a" style="fill: var(--color1, #50d86a)" d="M25.333 14.667h-18.667v-5.333c0-0.735 0.599-1.333 1.333-1.333h1.333v1.333c0 0.733 0.6 1.333 1.333 1.333s1.333-0.6 1.333-1.333v-1.333h8v1.333c0 0.733 0.6 1.333 1.333 1.333s1.333-0.6 1.333-1.333v-1.333h1.333c0.735 0 1.333 0.599 1.333 1.333v5.333zM21.333 22.667h-5.333c-0.733 0-1.333-0.6-1.333-1.333s0.6-1.333 1.333-1.333h5.333c0.733 0 1.333 0.6 1.333 1.333s-0.6 1.333-1.333 1.333zM10.667 22.667c-0.733 0-1.333-0.6-1.333-1.333s0.6-1.333 1.333-1.333c0.733 0 1.333 0.6 1.333 1.333s-0.6 1.333-1.333 1.333zM24 5.333h-1.333v-1.333c0-0.733-0.6-1.333-1.333-1.333s-1.333 0.6-1.333 1.333v1.333h-8v-1.333c0-0.733-0.6-1.333-1.333-1.333s-1.333 0.6-1.333 1.333v1.333h-1.333c-2.205 0-4 1.795-4 4v16c0 2.205 1.795 4 4 4h16c2.205 0 4-1.795 4-4v-16c0-2.205-1.795-4-4-4z"></path>
<path fill="#50d86a" style="fill: var(--color1, #50d86a)" d="M0 0h32v32h-32v-32z"></path>
</symbol>
<symbol id="icon-circles" viewBox="0 0 32 32">
<path fill="#231f20" style="fill: var(--color3, #231f20)" d="M16 9.333c1.472 0 2.667-1.195 2.667-2.667s-1.195-2.667-2.667-2.667c-1.472 0-2.667 1.195-2.667 2.667s1.195 2.667 2.667 2.667zM16 13.333c-1.472 0-2.667 1.195-2.667 2.667s1.195 2.667 2.667 2.667c1.472 0 2.667-1.195 2.667-2.667s-1.195-2.667-2.667-2.667zM13.333 25.333c0-1.472 1.195-2.667 2.667-2.667s2.667 1.195 2.667 2.667c0 1.472-1.195 2.667-2.667 2.667s-2.667-1.195-2.667-2.667z"></path>
<path fill="#8e8e96" style="fill: var(--color5, #8e8e96)" d="M0 0h32v32h-32v-32z"></path>
</symbol>
<symbol id="icon-coins" viewBox="0 0 32 32">
<path fill="#fff" style="fill: var(--color2, #fff)" d="M16 13.333c5.301 0 10.667-1.832 10.667-5.333s-5.365-5.333-10.667-5.333c-5.301 0-10.667 1.832-10.667 5.333s5.365 5.333 10.667 5.333z"></path>
<path fill="#fff" style="fill: var(--color2, #fff)" d="M5.333 13.333c0 3.501 5.365 5.333 10.667 5.333s10.667-1.832 10.667-5.333v-2.667c0 3.501-5.365 5.333-10.667 5.333s-10.667-1.832-10.667-5.333v2.667z"></path>
<path fill="#fff" style="fill: var(--color2, #fff)" d="M5.333 18.667c0 3.501 5.365 5.333 10.667 5.333s10.667-1.832 10.667-5.333v-2.667c0 3.501-5.365 5.333-10.667 5.333s-10.667-1.832-10.667-5.333v2.667z"></path>
<path fill="#fff" style="fill: var(--color2, #fff)" d="M5.333 24c0 3.501 5.365 5.333 10.667 5.333s10.667-1.832 10.667-5.333v-2.667c0 3.501-5.365 5.333-10.667 5.333s-10.667-1.832-10.667-5.333v2.667z"></path>
</symbol>
<symbol id="icon-comments" viewBox="0 0 32 32"><path fill="var(--color3, #deffe5)" d="M10.667 0h10.667c5.891 0 10.667 4.776 10.667 10.667v10.667c0 5.891-4.776 10.667-10.667 10.667H10.667C4.776 32.001 0 27.225 0 21.334V10.667C0 4.776 4.776 0 10.667 0z"/><path fill="var(--color4, #50d86a)" d="M19.2 16a.8.8 0 110-1.6.8.8 0 010 1.6zM16 16a.8.8 0 110-1.6.8.8 0 010 1.6zm-3.2 0a.8.8 0 110-1.6.8.8 0 010 1.6zm8.8-7.2H10.4A2.403 2.403 0 008 11.2v12a.8.8 0 001.212.686l3.619-2.171a.8.8 0 01.412-.114H21.6c1.323 0 2.4-1.077 2.4-2.4v-8c0-1.323-1.077-2.4-2.4-2.4z"/></symbol>

<symbol id="icon-delete" viewBox="0 0 32 32">
<path fill="#e24444" style="fill: var(--color7, #e24444)" d="M22.4 22.4c0 0.88-0.72 1.6-1.6 1.6s-1.6-0.72-1.6-1.6v-6.4c0-0.88 0.72-1.6 1.6-1.6s1.6 0.72 1.6 1.6v6.4zM12.8 3.725c0-0.248 0.342-0.525 0.8-0.525h4.8c0.458 0 0.8 0.277 0.8 0.525v2.675h-6.4v-2.675zM12.8 22.4c0 0.88-0.72 1.6-1.6 1.6s-1.6-0.72-1.6-1.6v-6.4c0-0.88 0.72-1.6 1.6-1.6s1.6 0.72 1.6 1.6v6.4zM30.4 6.4h-8v-2.675c0-2.054-1.794-3.725-4-3.725h-4.8c-2.206 0-4 1.67-4 3.725v2.675h-8c-0.88 0-1.6 0.72-1.6 1.6s0.72 1.6 1.6 1.6h1.6v17.6c0 2.646 2.154 4.8 4.8 4.8h16c2.646 0 4.8-2.154 4.8-4.8v-17.6h1.6c0.88 0 1.6-0.72 1.6-1.6s-0.72-1.6-1.6-1.6z"></path>
</symbol>
<symbol id="icon-dollar" viewBox="0 0 32 32">
<path fill="#ffa10b" style="fill: var(--color8, #ffa10b)" d="M16 29.333c7.364 0 13.333-5.97 13.333-13.333s-5.97-13.333-13.333-13.333c-7.364 0-13.333 5.97-13.333 13.333s5.97 13.333 13.333 13.333zM15.38 11.869c-0.827 0.096-1.436 0.592-1.436 1.383 0 0.627 0.4 1.079 1.192 1.34 0.078 0.026 0.157 0.052 0.244 0.070v-2.793zM16.72 20.179c0.922-0.078 1.575-0.644 1.575-1.497 0-0.713-0.426-1.192-1.401-1.462-0.052-0.009-0.113-0.026-0.174-0.043v3.002zM16.729 22.058l0.009 1.105h-1.41l0.009-1.088c-2.88-0.209-3.959-1.906-3.976-3.515h2.28c0.043 0.8 0.626 1.47 1.74 1.618v-3.237l-0.748-0.165c-1.618-0.357-3.045-1.366-3.045-3.341 0-2.088 1.653-3.246 3.759-3.437v-1.122h1.41v1.131c2.201 0.235 3.62 1.61 3.655 3.419h-2.228c-0.026-0.696-0.539-1.392-1.462-1.54v3.037l0.74 0.157c1.749 0.374 3.167 1.262 3.167 3.367 0 2.071-1.514 3.385-3.898 3.611z"></path>
</symbol>
<symbol id="icon-dribble" viewBox="0 0 32 32"><path fill="var(--color5, #ea4c89)" d="M10.667 0h10.667c5.891 0 10.667 4.776 10.667 10.667v10.667c0 5.891-4.776 10.667-10.667 10.667H10.667C4.776 32.001 0 27.225 0 21.334V10.667C0 4.776 4.776 0 10.667 0z"/><path fill="var(--color5, #ea4c89)" d="M16 4c6.627 0 12 5.373 12 12s-5.373 12-12 12S4 22.627 4 16 9.373 4 16 4z"/><path fill="var(--color2, #fff)" d="M16 23.991c-4.412 0-8-3.581-8-7.988 0-4.412 3.588-7.994 8-7.994s8 3.581 8 7.988c0 4.406-3.588 7.994-8 7.994zm6.744-6.9c-.231-.075-2.113-.631-4.256-.294.894 2.45 1.256 4.45 1.325 4.863a6.782 6.782 0 002.931-4.569zm-4.075 5.2c-.1-.6-.5-2.688-1.456-5.175a.116.116 0 01-.044.012c-3.856 1.344-5.238 4.012-5.362 4.262a6.805 6.805 0 004.194 1.438 6.681 6.681 0 002.669-.538zm-7.744-1.719c.156-.262 2.031-3.362 5.556-4.506.087-.031.181-.056.269-.081a17.715 17.715 0 00-.556-1.156c-3.412 1.019-6.725.975-7.025.969 0 .069-.006.137-.006.206a6.83 6.83 0 001.763 4.569zm-1.612-5.963c.306.006 3.119.019 6.319-.831-1.131-2.012-2.356-3.7-2.531-3.944a6.84 6.84 0 00-3.787 4.775zM14.4 9.372c.188.25 1.431 1.937 2.55 3.994 2.431-.913 3.456-2.288 3.581-2.463A6.811 6.811 0 0016 9.184c-.55 0-1.087.069-1.6.188zm6.887 2.319c-.144.194-1.287 1.662-3.812 2.694a27.523 27.523 0 01.606 1.337c2.275-.288 4.531.175 4.756.219a6.802 6.802 0 00-1.55-4.25z"/></symbol>

<symbol id="icon-empty-mask" viewBox="0 0 32 32">
<path d="M28.281 26.235c0 1.13-0.786 2.046-1.754 2.046h-21.053l13.274-11.96c0.432-0.43 1.214-0.428 1.637-0.002l7.896 7.856v2.060zM8.982 7.228c1.453 0 2.632 1.179 2.632 2.632s-1.179 2.632-2.632 2.632c-1.453 0-2.632-1.179-2.632-2.632s1.179-2.632 2.632-2.632zM26.526 0.211h-21.053c-2.902 0-5.263 2.361-5.263 5.263v21.053c0 2.902 2.361 5.263 5.263 5.263h21.053c2.902 0 5.263-2.361 5.263-5.263v-21.053c0-2.902-2.361-5.263-5.263-5.263z"></path>
</symbol>
<symbol id="icon-facebook" viewBox="0 0 32 32">
<path fill="#fff" style="fill: var(--color2, #fff)" d="M18.402 32v-14.597h4.9l0.734-5.689h-5.633v-3.632c0-1.647 0.457-2.769 2.819-2.769l3.012-0.001v-5.088c-0.521-0.069-2.309-0.224-4.389-0.224-4.343 0-7.316 2.651-7.316 7.519v4.195h-4.912v5.689h4.912v14.597l5.874-0z"></path>
</symbol>
<symbol id="icon-flash" viewBox="0 0 32 32">
<path fill="#fff" style="fill: var(--color2, #fff)" d="M14.815 30.667c-0.152 0-0.305-0.027-0.456-0.081-0.576-0.209-0.936-0.785-0.869-1.395l1.024-9.457h-7.847c-0.492 0-0.944-0.271-1.176-0.705s-0.205-0.96 0.068-1.369l10.517-15.733c0.341-0.511 0.987-0.723 1.564-0.511 0.577 0.209 0.936 0.785 0.869 1.395l-1.024 9.457h7.848c0.492 0 0.944 0.271 1.176 0.705 0.231 0.435 0.205 0.96-0.068 1.369l-10.519 15.733c-0.252 0.379-0.673 0.592-1.108 0.592z"></path>
</symbol>
<symbol id="icon-followers" viewBox="0 0 32 32"><path fill="var(--color6, #f0deff)" d="M10.667 0h10.667c5.891 0 10.667 4.776 10.667 10.667v10.667c0 5.891-4.776 10.667-10.667 10.667H10.667C4.776 32.001 0 27.225 0 21.334V10.667C0 4.776 4.776 0 10.667 0z"/><path fill="var(--color7, #a86ce4)" d="M13.6 15.2c1.765 0 3.2-1.435 3.2-3.2s-1.435-3.2-3.2-3.2c-1.765 0-3.2 1.435-3.2 3.2s1.435 3.2 3.2 3.2zm6.4 1.6c1.323 0 2.4-1.077 2.4-2.4S21.323 12 20 12s-2.4 1.077-2.4 2.4 1.077 2.4 2.4 2.4zm4 4.8a.8.8 0 01-.8.8h-4a.8.8 0 01-.8.8H8.8a.8.8 0 01-.8-.8c0-3.088 2.513-5.6 5.6-5.6a5.58 5.58 0 013.952 1.637A3.992 3.992 0 0120 17.6c2.206 0 4 1.794 4 4z"/></symbol>

<symbol id="icon-heart" viewBox="0 0 32 32">
<path fill="#e24444" style="fill: var(--color7, #e24444)" d="M16 28c-0.355 0-0.693-0.14-0.944-0.392l-10.356-10.373c-2.715-2.72-2.715-7.145 0-9.865 1.311-1.312 3.061-2.036 4.927-2.036s3.616 0.724 4.927 2.036l1.447 1.449 1.445-1.448c1.312-1.313 3.063-2.037 4.928-2.037s3.616 0.724 4.927 2.036c2.715 2.72 2.715 7.145 0.001 9.865l-10.357 10.375c-0.251 0.251-0.589 0.391-0.944 0.391z"></path>
<path fill="#e24444" style="fill: var(--color7, #e24444)" d="M0 0h32v32h-32v-32z"></path>
</symbol>
<symbol id="icon-help" viewBox="0 0 32 32">
<path fill="#231f20" style="fill: var(--color3, #231f20)" d="M17.333 17.116v1.551c0 0.737-0.596 1.333-1.333 1.333s-1.333-0.596-1.333-1.333v-2.667c0-0.737 0.596-1.333 1.333-1.333 1.103 0 2-0.897 2-2s-0.897-2-2-2c-1.103 0-2 0.897-2 2 0 0.737-0.596 1.333-1.333 1.333s-1.333-0.596-1.333-1.333c0-2.573 2.093-4.667 4.667-4.667s4.667 2.093 4.667 4.667c0 2.107-1.413 3.871-3.333 4.449zM16 24c-0.737 0-1.333-0.596-1.333-1.333s0.596-1.333 1.333-1.333c0.737 0 1.333 0.596 1.333 1.333s-0.596 1.333-1.333 1.333zM16 2.667c-7.352 0-13.333 5.981-13.333 13.333s5.981 13.333 13.333 13.333c7.352 0 13.333-5.981 13.333-13.333s-5.981-13.333-13.333-13.333z"></path>
<path fill="#5f5f6f" style="fill: var(--color10, #5f5f6f)" d="M0 0h32v32h-32v-32z"></path>
</symbol>
<symbol id="icon-like" viewBox="0 0 32 32"><path fill="var(--color8, #ffcece)" d="M10.667 0h10.667c5.891 0 10.667 4.776 10.667 10.667v10.667c0 5.891-4.776 10.667-10.667 10.667H10.667C4.776 32.001 0 27.225 0 21.334V10.667C0 4.776 4.776 0 10.667 0z"/><path fill="var(--color9, #e24444)" d="M16 23.2a.796.796 0 01-.566-.235L9.22 16.741a4.195 4.195 0 010-5.919c.786-.787 1.837-1.222 2.956-1.222s2.17.434 2.956 1.222l.868.87.867-.869c.787-.788 1.838-1.222 2.957-1.222s2.17.434 2.956 1.222a4.196 4.196 0 01.001 5.919l-6.214 6.225a.8.8 0 01-.566.234z"/></symbol>

<symbol id="icon-log-out" viewBox="0 0 32 32">
<path fill="#e24444" style="fill: var(--color7, #e24444)" d="M10.667 6.667c0 0.733-0.6 1.333-1.333 1.333h-1.333v16h1.333c0.733 0 1.333 0.6 1.333 1.333s-0.6 1.333-1.333 1.333h-2.667c-0.733 0-1.333-0.6-1.333-1.333v-18.667c0-0.733 0.6-1.333 1.333-1.333h2.667c0.733 0 1.333 0.6 1.333 1.333zM24.005 9.9l3.752 5.333c0.333 0.472 0.323 1.105-0.024 1.567l-4 5.333c-0.261 0.349-0.663 0.533-1.068 0.533-0.277 0-0.559-0.087-0.799-0.267-0.589-0.441-0.708-1.277-0.267-1.865l2.4-3.201h-10.667c-0.736 0-1.333-0.596-1.333-1.333s0.597-1.333 1.333-1.333h10.667c0.022 0 0.042 0.006 0.063 0.012 0.017 0.005 0.034 0.010 0.052 0.012l-2.291-3.257c-0.424-0.601-0.279-1.433 0.324-1.857 0.601-0.425 1.433-0.279 1.857 0.324z"></path>
<path fill="#e24444" style="fill: var(--color7, #e24444)" d="M0 0h32v32h-32v-32z"></path>
</symbol>
<symbol id="icon-logo" viewBox="0 0 32 32">
<path fill="#231f20" style="fill: var(--color3, #231f20)" d="M27.99 9.284c-0.003-0.096-0.031-0.187-0.056-0.279-0.020-0.077-0.029-0.156-0.063-0.227-0.031-0.069-0.083-0.125-0.128-0.189-0.056-0.081-0.107-0.163-0.179-0.229-0.012-0.012-0.017-0.028-0.031-0.039-0.048-0.041-0.107-0.056-0.159-0.089-0.080-0.052-0.159-0.105-0.249-0.14-0.089-0.032-0.177-0.040-0.269-0.053-0.064-0.009-0.121-0.039-0.189-0.039h-6.667c-0.737 0-1.333 0.597-1.333 1.333s0.596 1.333 1.333 1.333h3.768l-5.381 6.277-5.701-3.42c-0.564-0.341-1.289-0.216-1.711 0.289l-6.667 8c-0.471 0.565-0.395 1.407 0.171 1.877 0.251 0.208 0.552 0.309 0.853 0.309 0.383 0 0.761-0.163 1.025-0.48l5.936-7.123 5.687 3.413c0.559 0.335 1.276 0.217 1.699-0.276l5.655-6.597v3.063c0 0.736 0.596 1.333 1.333 1.333s1.333-0.597 1.333-1.333v-6.667c0-0.017-0.009-0.032-0.011-0.049z"></path>
<path fill="#fff" style="fill: var(--color2, #fff)" d="M0 0h32v32h-32v-32z"></path>
</symbol>
<symbol id="icon-news" viewBox="0 0 32 32">
<path fill="#5f5f6e" style="fill: var(--color4, #5f5f6e)" d="M22.518 24.425c-0.229-0.577-0.555-1.081-0.84-1.512-0.144-0.216-0.292-0.436-0.421-0.663-0.519-0.901-0.34-1.267 0.501-2.676l0.136-0.231c0.681-1.148 0.719-2.249 0.753-3.22 0.016-0.477 0.032-0.927 0.124-1.349 0.215-0.976 2.277-1.236 3.556-1.389 0.215 0.839 0.339 1.712 0.339 2.616 0 3.425-1.629 6.471-4.148 8.424zM16 5.334c0.821 0 1.615 0.101 2.383 0.277-0.225 0.496-0.573 0.948-1.032 1.307-0.291 0.229-0.617 0.42-0.941 0.613-0.868 0.517-1.851 1.104-2.467 2.232-0.821 1.507-0.821 3.045-0.821 4.403 0 1.807-0.059 2.875-1.264 3.817-1.825 1.431-4.619 0.632-6.347-0.095-0.109-0.615-0.177-1.244-0.177-1.888 0-5.881 4.785-10.667 10.667-10.667zM16 2.667c-7.352 0-13.333 5.981-13.333 13.333 0 7.351 5.981 13.333 13.333 13.333s13.333-5.983 13.333-13.333c0-7.352-5.981-13.333-13.333-13.333z"></path>
<path fill="#5f5f6e" style="fill: var(--color4, #5f5f6e)" d="M0 0h32v32h-32v-32z"></path>
</symbol>
<symbol id="icon-pause" viewBox="0 0 32 32">
<path fill="#fff" style="fill: var(--color2, #fff)" d="M21.333 20c0 0.733-0.6 1.333-1.333 1.333s-1.333-0.6-1.333-1.333v-8c0-0.733 0.6-1.333 1.333-1.333s1.333 0.6 1.333 1.333v8zM13.333 20c0 0.733-0.6 1.333-1.333 1.333s-1.333-0.6-1.333-1.333v-8c0-0.733 0.6-1.333 1.333-1.333s1.333 0.6 1.333 1.333v8zM15.999 2.667c-7.352 0-13.333 5.981-13.333 13.333s5.981 13.333 13.333 13.333c7.353 0 13.333-5.981 13.333-13.333s-5.98-13.333-13.333-13.333z"></path>
<path fill="#fff" style="fill: var(--color2, #fff)" d="M0 0h32v32h-32v-32z"></path>
</symbol>
<symbol id="icon-person-add" viewBox="0 0 32 32">
<path fill="#a86ce4" style="fill: var(--color9, #a86ce4)" d="M13.333 14.667c2.941 0 5.333-2.392 5.333-5.333s-2.392-5.333-5.333-5.333c-2.941 0-5.333 2.392-5.333 5.333s2.392 5.333 5.333 5.333zM28 8h-1.333v-1.333c0-0.733-0.6-1.333-1.333-1.333s-1.333 0.6-1.333 1.333v1.333h-1.333c-0.733 0-1.333 0.6-1.333 1.333s0.6 1.333 1.333 1.333h1.333v1.333c0 0.733 0.6 1.333 1.333 1.333s1.333-0.6 1.333-1.333v-1.333h1.333c0.733 0 1.333-0.6 1.333-1.333s-0.6-1.333-1.333-1.333zM22.667 26.667c0 0.736-0.596 1.333-1.333 1.333h-16c-0.737 0-1.333-0.597-1.333-1.333 0-5.147 4.188-9.333 9.333-9.333s9.333 4.187 9.333 9.333z"></path>
<path fill="#a86ce4" style="fill: var(--color9, #a86ce4)" d="M0 0h32v32h-32v-32z"></path>
</symbol>
<symbol id="icon-person" viewBox="0 0 32 32">
<path fill="#231f20" style="fill: var(--color3, #231f20)" d="M21.333 9.333c0 2.941-2.392 5.333-5.333 5.333s-5.333-2.392-5.333-5.333c0-2.941 2.392-5.333 5.333-5.333s5.333 2.392 5.333 5.333zM25.333 26.667c0 0.736-0.596 1.333-1.333 1.333h-16c-0.737 0-1.333-0.597-1.333-1.333 0-5.147 4.188-9.333 9.333-9.333s9.333 4.187 9.333 9.333z"></path>
<path fill="#fff" style="fill: var(--color2, #fff)" d="M0 0h32v32h-32v-32z"></path>
</symbol>
<symbol id="icon-play" viewBox="0 0 32 32">
<path fill="#5f5f6e" style="fill: var(--color4, #5f5f6e)" d="M15.2 20.159l4.494-4.16-4.494-4.158v8.318zM22.368 17.886l-5.827 5.392c-0.51 0.474-1.174 0.722-1.851 0.722-0.373 0-0.752-0.077-1.109-0.232-0.976-0.426-1.581-1.336-1.581-2.376v-10.784c0-1.038 0.605-1.95 1.581-2.374 1.002-0.44 2.165-0.248 2.962 0.49l5.826 5.392c0.53 0.488 0.832 1.176 0.832 1.885 0 0.71-0.302 1.397-0.832 1.886zM16-0.001c-8.822 0-16 7.179-16 16 0 8.822 7.178 16 16 16s16-7.178 16-16c0-8.821-7.178-16-16-16z"></path>
</symbol>
<symbol id="icon-plus" viewBox="0 0 32 32">
<path fill="#231f20" style="fill: var(--color3, #231f20)" d="M25.333 14.667h-8v-8c0-0.737-0.597-1.333-1.333-1.333s-1.333 0.596-1.333 1.333v8h-8c-0.736 0-1.333 0.596-1.333 1.333s0.597 1.333 1.333 1.333h8v8c0 0.737 0.597 1.333 1.333 1.333s1.333-0.596 1.333-1.333v-8h8c0.736 0 1.333-0.596 1.333-1.333s-0.597-1.333-1.333-1.333z"></path>
<path fill="#fff" style="fill: var(--color2, #fff)" d="M0 0h32v32h-32v-32z"></path>
</symbol>
<symbol id="icon-sun" viewBox="0 0 32 32">
<path fill="#231f20" style="fill: var(--color3, #231f20)" d="M16 8c0.736 0 1.333-0.596 1.333-1.333v-2.667c0-0.737-0.597-1.333-1.333-1.333s-1.333 0.596-1.333 1.333v2.667c0 0.737 0.597 1.333 1.333 1.333zM28 14.667h-2.667c-0.736 0-1.333 0.596-1.333 1.333s0.597 1.333 1.333 1.333h2.667c0.736 0 1.333-0.596 1.333-1.333s-0.597-1.333-1.333-1.333zM6.667 14.667c0.736 0 1.333 0.596 1.333 1.333s-0.597 1.333-1.333 1.333h-2.667c-0.736 0-1.333-0.596-1.333-1.333s0.597-1.333 1.333-1.333h2.667zM8.294 6.704c-0.529-0.511-1.373-0.495-1.885 0.033-0.512 0.529-0.497 1.375 0.032 1.885l1.919 1.853c0.26 0.251 0.593 0.373 0.927 0.373 0.349 0 0.697-0.136 0.959-0.407 0.512-0.529 0.497-1.375-0.032-1.885l-1.919-1.853zM23.64 10.477c-0.26 0.249-0.593 0.373-0.927 0.373-0.349 0-0.697-0.137-0.959-0.408-0.512-0.528-0.497-1.373 0.032-1.885l1.919-1.852c0.532-0.511 1.375-0.495 1.885 0.033 0.512 0.528 0.497 1.373-0.032 1.885l-1.919 1.853zM16 24c-0.736 0-1.333 0.596-1.333 1.333v2.667c0 0.737 0.597 1.333 1.333 1.333s1.333-0.596 1.333-1.333v-2.667c0-0.737-0.597-1.333-1.333-1.333zM21.755 21.557c0.512-0.528 1.356-0.544 1.885-0.033l1.919 1.853c0.529 0.511 0.544 1.356 0.032 1.885-0.261 0.271-0.609 0.407-0.959 0.407-0.333 0-0.667-0.123-0.927-0.373l-1.919-1.853c-0.529-0.511-0.544-1.356-0.032-1.885zM8.36 21.523l-1.919 1.853c-0.529 0.511-0.544 1.356-0.032 1.885 0.261 0.271 0.609 0.407 0.959 0.407 0.333 0 0.667-0.123 0.927-0.373l1.919-1.853c0.529-0.511 0.544-1.356 0.032-1.885-0.511-0.528-1.355-0.544-1.885-0.033zM10.667 16c0-2.941 2.392-5.333 5.333-5.333s5.333 2.392 5.333 5.333c0 2.941-2.392 5.333-5.333 5.333s-5.333-2.392-5.333-5.333z"></path>
<path fill="#fff" style="fill: var(--color2, #fff)" d="M0 0h32v32h-32v-32z"></path>
</symbol>
<symbol id="icon-task-list" viewBox="0 0 32 32">
<path fill="#fff" style="fill: var(--color2, #fff)" d="M6.667 4h5.333c1.471 0 2.667 1.196 2.667 2.667v5.333c0 1.471-1.196 2.667-2.667 2.667h-5.333c-1.471 0-2.667-1.196-2.667-2.667v-5.333c0-1.471 1.196-2.667 2.667-2.667zM20 4h5.333c1.471 0 2.667 1.196 2.667 2.667v5.333c0 1.471-1.196 2.667-2.667 2.667h-5.333c-1.471 0-2.667-1.196-2.667-2.667v-5.333c0-1.471 1.196-2.667 2.667-2.667zM12 17.333h-5.333c-1.471 0-2.667 1.196-2.667 2.667v5.333c0 1.471 1.196 2.667 2.667 2.667h5.333c1.471 0 2.667-1.196 2.667-2.667v-5.333c0-1.471-1.196-2.667-2.667-2.667zM20 17.333h5.333c1.471 0 2.667 1.196 2.667 2.667v5.333c0 1.471-1.196 2.667-2.667 2.667h-5.333c-1.471 0-2.667-1.196-2.667-2.667v-5.333c0-1.471 1.196-2.667 2.667-2.667z"></path>
<path fill="#fff" style="fill: var(--color2, #fff)" d="M0 0h32v32h-32v-32z"></path>
</symbol>
<symbol id="icon-telegram" viewBox="0 0 32 32">
<path fill="#5f5f6e" style="fill: var(--color4, #5f5f6e)" d="M24.292 30.164c1.917 0.875 2.636-0.958 2.636-0.958l5.072-26.573c-0.040-1.791-2.356-0.708-2.356-0.708l-28.398 11.62c0 0-1.358 0.5-1.238 1.374s1.198 1.291 1.198 1.291l7.149 2.499c0 0 2.157 7.372 2.596 8.788 0.399 1.375 0.759 1.416 0.759 1.416 0.399 0.167 0.759-0.125 0.759-0.125l4.633-4.373 7.189 5.748zM25.53 7.339c0 0 0.999-0.625 0.959 0 0 0 0.16 0.083-0.36 0.666-0.479 0.5-11.782 11.079-13.3 12.495-0.12 0.083-0.2 0.208-0.2 0.375l-0.439 3.915c-0.080 0.416-0.599 0.458-0.719 0.083l-1.877-6.414c-0.080-0.25 0-0.541 0.24-0.708l15.697-10.413z"></path>
</symbol>
<symbol id="icon-twitter" viewBox="0 0 32 32">
<path fill="#fff" style="fill: var(--color2, #fff)" d="M27.54 9.697c0 0.276 0 0.553 0 0.789 0 8.171-6.237 17.605-17.605 17.605-3.513 0-6.75-1.026-9.513-2.763 0.474 0.039 0.987 0.079 1.461 0.079 2.882 0 5.566-0.987 7.697-2.645-2.724-0.039-5.013-1.855-5.763-4.303 0.395 0.079 0.75 0.118 1.184 0.118 0.553 0 1.105-0.079 1.618-0.237-2.842-0.553-4.974-3.039-4.974-6.039 0-0.039 0-0.039 0-0.079 0.829 0.474 1.776 0.75 2.803 0.789-1.658-1.105-2.763-3-2.763-5.171 0-1.145 0.316-2.211 0.829-3.118 3.039 3.75 7.618 6.197 12.75 6.474-0.118-0.434-0.158-0.947-0.158-1.421 0-3.434 2.763-6.197 6.197-6.197 1.776 0 3.395 0.75 4.5 1.934 1.421-0.276 2.724-0.789 3.947-1.5-0.474 1.461-1.461 2.645-2.724 3.434 1.263-0.158 2.447-0.474 3.552-0.987-0.789 1.263-1.816 2.368-3.039 3.237z"></path>
</symbol>
<symbol id="icon-views" viewBox="0 0 32 32"><path fill="var(--color10, #fff6de)" d="M10.667 0h10.667c5.891 0 10.667 4.776 10.667 10.667v10.667c0 5.891-4.776 10.667-10.667 10.667H10.667C4.776 32.001 0 27.225 0 21.334V10.667C0 4.776 4.776 0 10.667 0z"/><path fill="var(--color11, #ffa10b)" d="M16 14.8a1.201 1.201 0 000 2.4 1.201 1.201 0 000-2.4zm0 4c-1.544 0-2.8-1.256-2.8-2.8s1.256-2.8 2.8-2.8c1.544 0 2.8 1.256 2.8 2.8s-1.256 2.8-2.8 2.8zm7.894-3.198c-.511-.89-3.33-5.349-8.111-5.199-4.422.113-6.994 4.009-7.678 5.199a.804.804 0 000 .797c.504.878 3.224 5.202 7.914 5.202l.197-.002c4.422-.113 6.994-4.009 7.678-5.199a.804.804 0 000-.797z"/></symbol>
<symbol id="icon-vk" viewBox="0 0 32 32">
<path fill="#fff" style="fill: var(--color2, #fff)" d="M31.266 7.734c0.223-0.742 0-1.287-1.059-1.287h-3.501c-0.89 0-1.3 0.471-1.523 0.99 0 0-1.78 4.339-4.303 7.158-0.816 0.816-1.187 1.075-1.632 1.075-0.223 0-0.545-0.259-0.545-1.001v-6.936c0-0.89-0.258-1.287-1-1.287h-5.501c-0.556 0-0.891 0.413-0.891 0.805 0 0.844 1.261 1.038 1.391 3.412v5.155c0 1.13-0.204 1.335-0.649 1.335-1.187 0-4.073-4.359-5.786-9.346-0.336-0.969-0.672-1.361-1.567-1.361h-3.501c-1 0-1.2 0.471-1.2 0.99 0 0.927 1.187 5.526 5.526 11.609 2.893 4.153 6.969 6.406 10.678 6.406 2.225 0 2.5-0.5 2.5-1.362v-3.14c0-1 0.211-1.2 0.915-1.2 0.52 0 1.41 0.26 3.487 2.262 2.374 2.373 2.765 3.439 4.1 3.439h3.501c1 0 1.5-0.5 1.212-1.487-0.316-0.984-1.449-2.411-2.953-4.102-0.816-0.964-2.040-2.003-2.411-2.522-0.519-0.668-0.371-0.964 0-1.557 0 0 4.265-6.008 4.71-8.048v-0z"></path>
</symbol>
</defs>
</svg>
