<svg aria-hidden="true" style="position: absolute; width: 0; height: 0; overflow: hidden;" version="1.1" xmlns="http://www.w3.org/2000/svg" xmlns:xlink="http://www.w3.org/1999/xlink">
<defs>
<symbol id="icon-Mask" viewBox="0 0 9 32">
<path d="M4.849 7.429c1.89 0 3.423-1.536 3.423-3.429s-1.534-3.429-3.423-3.429c-1.89 0-3.423 1.536-3.423 3.429s1.534 3.429 3.423 3.429zM4.849 12.571c-1.89 0-3.423 1.536-3.423 3.429s1.534 3.429 3.423 3.429c1.89 0 3.423-1.536 3.423-3.429s-1.534-3.429-3.423-3.429zM1.426 28c0-1.893 1.534-3.429 3.423-3.429s3.423 1.536 3.423 3.429c0 1.893-1.534 3.429-3.423 3.429s-3.423-1.536-3.423-3.429z"></path>
</symbol>
<symbol id="icon-four" viewBox="0 0 32 32">
<path d="M15.695 28c-0.354 0-0.692-0.14-0.943-0.392l-10.34-10.373c-2.711-2.72-2.711-7.145 0-9.865 1.309-1.312 3.057-2.036 4.919-2.036s3.61 0.724 4.919 2.036l1.444 1.449 1.443-1.448c1.31-1.313 3.058-2.037 4.92-2.037s3.61 0.724 4.919 2.036c2.71 2.72 2.71 7.145 0.001 9.865l-10.341 10.375c-0.25 0.251-0.588 0.391-0.943 0.391z"></path>
</symbol>
<symbol id="icon-one" viewBox="0 0 32 32">
<path d="M21.66 14.222c-0.817 0-1.479-0.664-1.479-1.482s0.663-1.481 1.479-1.481c0.817 0 1.479 0.664 1.479 1.481s-0.663 1.482-1.479 1.482zM15.743 14.222c-0.816 0-1.479-0.664-1.479-1.482s0.663-1.481 1.479-1.481c0.817 0 1.479 0.664 1.479 1.481s-0.663 1.482-1.479 1.482zM9.826 14.222c-0.817 0-1.479-0.664-1.479-1.482s0.663-1.481 1.479-1.481c0.817 0 1.479 0.664 1.479 1.481s-0.663 1.482-1.479 1.482zM26.097 0.889h-20.709c-2.447 0-4.438 1.994-4.438 4.444v22.222c0 0.533 0.287 1.027 0.75 1.289 0.226 0.129 0.478 0.193 0.729 0.193 0.263 0 0.527-0.070 0.762-0.212l6.692-4.021c0.231-0.139 0.494-0.212 0.762-0.212h15.452c2.447 0 4.438-1.994 4.438-4.444v-14.815c0-2.45-1.991-4.444-4.438-4.444z"></path>
</symbol>
<symbol 
id="icon-placeholder" viewBox="0 0 32 32">
<path d="M28.187 26.235c0 1.13-0.785 2.046-1.752 2.046h-21.020l13.253-11.96c0.431-0.43 1.212-0.428 1.634-0.002l7.884 7.856v2.060zM8.919 7.228c1.45 0 2.628 1.179 2.628 2.632s-1.177 2.632-2.628 2.632c-1.45 0-2.628-1.179-2.628-2.632s1.177-2.632 2.628-2.632zM26.436 0.211h-21.020c-2.897 0-5.255 2.361-5.255 5.263v21.053c0 2.902 2.358 5.263 5.255 5.263h21.020c2.897 0 5.255-2.361 5.255-5.263v-21.053c0-2.902-2.358-5.263-5.255-5.263z"></path>
</symbol>
<symbol id="icon-three" viewBox="0 0 32 32">
<path d="M15.695 14c-1.101 0-1.997 0.897-1.997 2s0.896 2 1.997 2c1.101 0 1.997-0.897 1.997-2s-0.896-2-1.997-2zM15.695 20.667c-2.569 0-4.659-2.093-4.659-4.667s2.090-4.667 4.66-4.667c2.569 0 4.66 2.093 4.66 4.667s-2.090 4.667-4.66 4.667zM28.832 15.336c-0.851-1.483-5.541-8.915-13.498-8.665-7.358 0.188-11.639 6.681-12.776 8.665-0.234 0.412-0.234 0.916 0 1.328 0.839 1.463 5.365 8.669 13.17 8.669 0.108 0 0.217-0.001 0.328-0.004 7.358-0.188 11.639-6.681 12.776-8.665 0.234-0.412 0.234-0.916 0-1.328z"></path>
</symbol>
<symbol id="icon-two" viewBox="0 0 32 32">
<path d="M11.469 14.518c3.263 0 5.917-2.658 5.917-5.926s-2.654-5.926-5.917-5.926-5.917 2.658-5.917 5.926c0 3.268 2.654 5.926 5.917 5.926zM23.303 17.482c2.447 0 4.438-1.994 4.438-4.444s-1.991-4.444-4.438-4.444c-2.447 0-4.438 1.994-4.438 4.444s1.991 4.444 4.438 4.444zM30.699 26.37c0 0.818-0.661 1.481-1.479 1.481h-7.396c0 0.818-0.661 1.482-1.479 1.482h-17.75c-0.818 0-1.479-0.664-1.479-1.482 0-5.718 4.646-10.37 10.354-10.37 2.85 0 5.433 1.16 7.307 3.031 1.285-0.996 2.868-1.55 4.526-1.55 4.078 0 7.396 3.323 7.396 7.407z"></path>
</symbol>
</defs>
</svg>
