<svg width="24" height="24" viewBox="0 0 24 24" fill="none" xmlns="http://www.w3.org/2000/svg">
<path fill-rule="evenodd" clip-rule="evenodd" d="M12 8.00002C11.772 8.00002 11.545 8.07702 11.36 8.23202L5.36003 13.232C4.93603 13.585 4.87803 14.216 5.23203 14.64C5.58503 15.064 6.21503 15.121 6.64003 14.768L12.011 10.292L17.373 14.607C17.803 14.953 18.433 14.885 18.779 14.455C19.125 14.025 19.057 13.396 18.627 13.049L12.627 8.22102C12.444 8.07402 12.222 8.00002 12 8.00002Z" fill="#4447E2"/>
<mask id="mask0" mask-type="alpha" maskUnits="userSpaceOnUse" x="5" y="8" width="14" height="7">
<path fill-rule="evenodd" clip-rule="evenodd" d="M12 8.00002C11.772 8.00002 11.545 8.07702 11.36 8.23202L5.36003 13.232C4.93603 13.585 4.87803 14.216 5.23203 14.64C5.58503 15.064 6.21503 15.121 6.64003 14.768L12.011 10.292L17.373 14.607C17.803 14.953 18.433 14.885 18.779 14.455C19.125 14.025 19.057 13.396 18.627 13.049L12.627 8.22102C12.444 8.07402 12.222 8.00002 12 8.00002Z" fill="white"/>
</mask>
<g mask="url(#mask0)">
<rect width="24" height="24" transform="matrix(1 0 0 -1 0 24)" fill="#4447E2"/>
</g>
</svg>
