<svg width="76" height="76" viewBox="0 0 76 76" fill="none" xmlns="http://www.w3.org/2000/svg">
<path fill-rule="evenodd" clip-rule="evenodd" d="M67.1667 62.3084C67.1667 64.9917 65.3 67.1667 63 67.1667H13L44.525 38.7625C45.55 37.7417 47.4083 37.7459 48.4125 38.7584L67.1667 57.4167V62.3084ZM21.3333 17.1667C24.7833 17.1667 27.5833 19.9667 27.5833 23.4167C27.5833 26.8667 24.7833 29.6667 21.3333 29.6667C17.8833 29.6667 15.0833 26.8667 15.0833 23.4167C15.0833 19.9667 17.8833 17.1667 21.3333 17.1667ZM63 0.5H13C6.10833 0.5 0.5 6.10833 0.5 13V63C0.5 69.8917 6.10833 75.5 13 75.5H63C69.8917 75.5 75.5 69.8917 75.5 63V13C75.5 6.10833 69.8917 0.5 63 0.5Z" fill="#2D2D3A"/>
</svg>
