<svg  fill="#FFA10B" version="1.1" viewBox="0 0 10 6" xmlns="http://www.w3.org/2000/svg">
<path d="M4.90463 2.37498C4.56057 2.37498 4.28059 2.6554 4.28059 2.99998C4.28059 3.34456 4.56057 3.62498 4.90463 3.62498C5.24868 3.62498 5.52866 3.34456 5.52866 2.99998C5.52866 2.6554 5.24868 2.37498 4.90463 2.37498ZM4.90463 4.45831C4.1017 4.45831 3.44854 3.80415 3.44854 2.99998C3.44854 2.19581 4.1017 1.54165 4.90463 1.54165C5.70756 1.54165 6.36072 2.19581 6.36072 2.99998C6.36072 3.80415 5.70756 4.45831 4.90463 4.45831ZM9.00997 2.79247C8.74413 2.32914 7.27847 0.00664043 4.79188 0.0845571C2.49251 0.143307 1.15457 2.17247 0.799285 2.79247C0.726064 2.92122 0.726064 3.07872 0.799285 3.20747C1.06138 3.66456 2.47587 5.91664 4.91503 5.91664C4.94872 5.91664 4.98284 5.91622 5.01737 5.91539C7.31674 5.85664 8.65468 3.82747 9.00997 3.20747C9.08319 3.07872 9.08319 2.92122 9.00997 2.79247Z"/>
</svg>

