<svg width="20" height="20" fill="none" xmlns="http://www.w3.org/2000/svg"><path fill-rule="evenodd" clip-rule="evenodd" d="M17.494 5.802c-.002-.06-.02-.116-.035-.174-.013-.048-.019-.097-.04-.141-.019-.044-.051-.079-.08-.119-.035-.05-.066-.101-.111-.143-.008-.008-.011-.018-.02-.024-.03-.026-.066-.035-.099-.056-.05-.033-.099-.066-.156-.088-.055-.02-.11-.025-.168-.033-.04-.006-.076-.024-.118-.024H12.5a.833.833 0 100 1.667h2.355l-3.363 3.923-3.564-2.138a.831.831 0 00-1.069.181l-4.166 5a.833.833 0 001.28 1.067l3.71-4.452 3.555 2.134c.349.209.797.135 1.061-.173l3.535-4.123V10a.833.833 0 101.666 0V5.833c0-.01-.006-.02-.006-.03z" fill="#231F20"/><mask id="a" maskUnits="userSpaceOnUse" x="2" y="4" width="16" height="11"><path fill-rule="evenodd" clip-rule="evenodd" d="M17.494 5.802c-.002-.06-.02-.116-.035-.174-.013-.048-.019-.097-.04-.141-.019-.044-.051-.079-.08-.119-.035-.05-.066-.101-.111-.143-.008-.008-.011-.018-.02-.024-.03-.026-.066-.035-.099-.056-.05-.033-.099-.066-.156-.088-.055-.02-.11-.025-.168-.033-.04-.006-.076-.024-.118-.024H12.5a.833.833 0 100 1.667h2.355l-3.363 3.923-3.564-2.138a.831.831 0 00-1.069.181l-4.166 5a.833.833 0 001.28 1.067l3.71-4.452 3.555 2.134c.349.209.797.135 1.061-.173l3.535-4.123V10a.833.833 0 101.666 0V5.833c0-.01-.006-.02-.006-.03z" fill="#fff"/></mask><g mask="url(#a)"><path fill="#fff" d="M0 0h20v20H0z"/></g></svg>