<svg fill="#4B4B62" viewBox="0 0 22 22" xmlns="http://www.w3.org/2000/svg">
<path fill-rule="evenodd" clip-rule="evenodd" d="M11.0218 3.93863L2.99113 10.4111C2.34712 10.9301 1.40507 10.8281 0.885374 10.1831C0.367173 9.53663 0.469016 8.59313 1.11302 8.07263L10.0992 0.830632C10.6548 0.383632 11.4486 0.388132 11.9968 0.848632L20.9829 8.34863C21.6194 8.87813 21.7048 9.82313 21.1746 10.4606C20.8781 10.8161 20.4527 11.0006 20.0244 11.0006C19.6859 11.0006 19.3459 10.8851 19.0659 10.6526L11.0218 3.93863ZM10.0995 11.3314C10.6551 10.8829 11.4489 10.8889 11.9971 11.3479L20.9832 18.8479C21.6182 19.3789 21.7036 20.3239 21.1749 20.9599C20.8784 21.3169 20.453 21.4999 20.0232 21.4999C19.6862 21.4999 19.3462 21.3859 19.0662 21.1519L11.0221 14.4394L2.99144 20.9104C2.34743 21.4309 1.40538 21.3289 0.885683 20.6824C0.365984 20.0374 0.469325 19.0939 1.11333 18.5734L10.0995 11.3314Z"/>
</svg>
