<!-- Generated by IcoMoon.io -->
<svg fill="red" version="1.1" xmlns="http://www.w3.org/2000/svg">
<path d="M28.187 26.235c0 1.13-0.785 2.046-1.752 2.046h-21.020l13.253-11.96c0.431-0.43 1.212-0.428 1.634-0.002l7.884 7.856v2.060zM8.919 7.228c1.45 0 2.628 1.179 2.628 2.632s-1.177 2.632-2.628 2.632c-1.45 0-2.628-1.179-2.628-2.632s1.177-2.632 2.628-2.632zM26.436 0.211h-21.020c-2.897 0-5.255 2.361-5.255 5.263v21.053c0 2.902 2.358 5.263 5.255 5.263h21.020c2.897 0 5.255-2.361 5.255-5.263v-21.053c0-2.902-2.358-5.263-5.255-5.263z"></path>
</svg>
