<svg width="20" height="20" viewBox="0 0 20 20" fill="none" xmlns="http://www.w3.org/2000/svg">
<path fill-rule="evenodd" clip-rule="evenodd" d="M9.5 12.5994L12.309 9.99941L9.5 7.40041V12.5994ZM13.98 11.1785L10.338 14.5485C10.019 14.8445 9.604 14.9995 9.181 14.9995C8.948 14.9995 8.711 14.9515 8.488 14.8545C7.878 14.5885 7.5 14.0195 7.5 13.3695V6.62951C7.5 5.98051 7.878 5.41051 8.488 5.14551C9.114 4.87051 9.841 4.99051 10.339 5.45151L13.98 8.82151C14.311 9.12651 14.5 9.55651 14.5 9.99951C14.5 10.4435 14.311 10.8725 13.98 11.1785ZM10 -0.000488281C4.486 -0.000488281 0 4.48651 0 9.99951C0 15.5135 4.486 19.9995 10 19.9995C15.514 19.9995 20 15.5135 20 9.99951C20 4.48651 15.514 -0.000488281 10 -0.000488281Z" fill="#5F5F6E"/>
</svg>
