<!-- Generated by IcoMoon.io -->
<svg fill="#A86CE4" viewBox="0 0 9 8"  xmlns="http://www.w3.org/2000/svg">
<path d="M3.17964 3.58333C4.09739 3.58333 4.84374 2.83583 4.84374 1.91667C4.84374 0.9975 4.09739 0.25 3.17964 0.25C2.26188 0.25 1.51553 0.9975 1.51553 1.91667C1.51553 2.83583 2.26188 3.58333 3.17964 3.58333ZM6.50784 4.41667C7.19595 4.41667 7.75592 3.85583 7.75592 3.16667C7.75592 2.4775 7.19595 1.91667 6.50784 1.91667C5.81973 1.91667 5.25976 2.4775 5.25976 3.16667C5.25976 3.85583 5.81973 4.41667 6.50784 4.41667ZM8.58797 6.91667C8.58797 7.14667 8.40201 7.33333 8.17194 7.33333H6.09181C6.09181 7.56333 5.90585 7.75 5.67579 7.75H0.683482C0.45342 7.75 0.267456 7.56333 0.267456 7.33333C0.267456 5.725 1.57419 4.41667 3.17964 4.41667C3.98132 4.41667 4.7077 4.74292 5.2348 5.26917C5.59633 4.98917 6.04148 4.83333 6.50784 4.83333C7.65482 4.83333 8.58797 5.76792 8.58797 6.91667Z"/>
</svg>
