<!-- Generated by IcoMoon.io -->
<svg fill="#50D86A"
version="1.1" xmlns="http://www.w3.org/2000/svg" viewBox="0 0 32 32">
<path d="M21.66 14.222c-0.817 0-1.479-0.664-1.479-1.482s0.663-1.481 1.479-1.481c0.817 0 1.479 0.664 1.479 1.481s-0.663 1.482-1.479 1.482zM15.743 14.222c-0.816 0-1.479-0.664-1.479-1.482s0.663-1.481 1.479-1.481c0.817 0 1.479 0.664 1.479 1.481s-0.663 1.482-1.479 1.482zM9.826 14.222c-0.817 0-1.479-0.664-1.479-1.482s0.663-1.481 1.479-1.481c0.817 0 1.479 0.664 1.479 1.481s-0.663 1.482-1.479 1.482zM26.097 0.889h-20.709c-2.447 0-4.438 1.994-4.438 4.444v22.222c0 0.533 0.287 1.027 0.75 1.289 0.226 0.129 0.478 0.193 0.729 0.193 0.263 0 0.527-0.070 0.762-0.212l6.692-4.021c0.231-0.139 0.494-0.212 0.762-0.212h15.452c2.447 0 4.438-1.994 4.438-4.444v-14.815c0-2.45-1.991-4.444-4.438-4.444z"></path>
</svg>
