<svg width="20" height="13" viewBox="0 0 20 13" fill="none" xmlns="http://www.w3.org/2000/svg">
<path fill-rule="evenodd" clip-rule="evenodd" d="M19.5411 1.33404C19.6802 0.87049 19.5411 0.529785 18.8794 0.529785H16.6914C16.135 0.529785 15.8787 0.824072 15.7396 1.14868C15.7396 1.14868 14.6269 3.86072 13.0505 5.62238C12.5406 6.13234 12.3088 6.29441 12.0306 6.29441C11.8915 6.29441 11.6902 6.13234 11.6902 5.6688V1.33404C11.6902 0.777656 11.5288 0.529785 11.0651 0.529785H7.62678C7.2792 0.529785 7.07009 0.787971 7.07009 1.03272C7.07009 1.56018 7.85808 1.68177 7.93935 3.16524V6.3874C7.93935 7.09382 7.81182 7.22197 7.53363 7.22197C6.7919 7.22197 4.98773 4.49759 3.91748 1.38045C3.70774 0.77453 3.49738 0.529785 2.93819 0.529785H0.750175C0.125029 0.529785 0 0.824072 0 1.14868C0 1.72819 0.741892 4.60261 3.45393 8.40412C5.26217 11 7.80932 12.4076 10.1274 12.4076C11.5183 12.4076 11.6902 12.095 11.6902 11.5566V9.5944C11.6902 8.96926 11.822 8.84454 12.2622 8.84454C12.587 8.84454 13.1432 9.00676 14.4415 10.2585C15.925 11.7418 16.1694 12.4076 17.004 12.4076H19.192C19.8171 12.4076 20.1297 12.095 19.9493 11.4781C19.7521 10.8633 19.0438 9.97152 18.1039 8.91409C17.594 8.31129 16.8289 7.66223 16.5973 7.33778C16.2727 6.9205 16.3654 6.73514 16.5973 6.36443C16.5973 6.36443 19.2629 2.60918 19.5411 1.33419V1.33404Z" fill="white"/>
</svg>
